<mxfile host="65bd71144e">
    <diagram id="qzGxlmrWJyAt-tT9Fvm8" name="hybrid-cloud-hubspoke">
        <mxGraphModel dx="1677" dy="1585" grid="1" gridSize="10" guides="1" tooltips="1" connect="1" arrows="1" fold="1" page="1" pageScale="1" pageWidth="827" pageHeight="1169" math="0" shadow="0">
            <root>
                <mxCell id="0"/>
                <mxCell id="1" parent="0"/>
                <mxCell id="33" value="AWS Cloud" style="points=[[0,0],[0.25,0],[0.5,0],[0.75,0],[1,0],[1,0.25],[1,0.5],[1,0.75],[1,1],[0.75,1],[0.5,1],[0.25,1],[0,1],[0,0.75],[0,0.5],[0,0.25]];outlineConnect=0;html=1;whiteSpace=wrap;fontSize=12;fontStyle=0;container=1;pointerEvents=0;collapsible=0;recursiveResize=0;shape=mxgraph.aws4.group;grIcon=mxgraph.aws4.group_aws_cloud_alt;strokeColor=#314354;fillColor=#647687;verticalAlign=top;align=left;spacingLeft=30;dashed=0;fontColor=#ffffff;" parent="1" vertex="1">
                    <mxGeometry x="-600" y="-850" width="2080" height="910" as="geometry"/>
                </mxCell>
                <mxCell id="64" value="Peering entre &lt;br&gt;gateways / RegiÃµes" style="sketch=0;outlineConnect=0;fontColor=#FFFFFF;gradientColor=none;fillColor=#4D27AA;strokeColor=none;dashed=0;verticalLabelPosition=bottom;verticalAlign=top;align=center;html=1;fontSize=12;fontStyle=0;aspect=fixed;pointerEvents=1;shape=mxgraph.aws4.peering;" parent="33" vertex="1">
                    <mxGeometry x="1006" y="325" width="78" height="78" as="geometry"/>
                </mxCell>
                <mxCell id="68" value="&lt;span style=&quot;color: rgb(255, 255, 255); text-align: center;&quot;&gt;sa-east-1&lt;/span&gt;" style="points=[[0,0],[0.25,0],[0.5,0],[0.75,0],[1,0],[1,0.25],[1,0.5],[1,0.75],[1,1],[0.75,1],[0.5,1],[0.25,1],[0,1],[0,0.75],[0,0.5],[0,0.25]];outlineConnect=0;html=1;whiteSpace=wrap;fontSize=12;fontStyle=0;container=0;pointerEvents=0;collapsible=0;recursiveResize=0;shape=mxgraph.aws4.group;grIcon=mxgraph.aws4.group_region;strokeColor=#3A5431;fillColor=#6d8764;verticalAlign=top;align=left;spacingLeft=30;fontColor=#ffffff;dashed=1;" parent="33" vertex="1">
                    <mxGeometry x="1130" y="50" width="918" height="640" as="geometry"/>
                </mxCell>
                <mxCell id="96" style="edgeStyle=none;html=1;strokeWidth=3;fontColor=#FFFFFF;endArrow=none;endFill=0;" parent="33" source="88" target="64" edge="1">
                    <mxGeometry relative="1" as="geometry"/>
                </mxCell>
                <mxCell id="97" style="edgeStyle=none;html=1;entryX=0.5;entryY=1;entryDx=0;entryDy=0;strokeWidth=3;fontColor=#FFFFFF;endArrow=none;endFill=0;" parent="33" source="88" target="79" edge="1">
                    <mxGeometry relative="1" as="geometry"/>
                </mxCell>
                <mxCell id="98" style="edgeStyle=none;html=1;entryX=0.5;entryY=1;entryDx=0;entryDy=0;strokeWidth=3;fontColor=#FFFFFF;endArrow=none;endFill=0;" parent="33" source="88" target="84" edge="1">
                    <mxGeometry relative="1" as="geometry"/>
                </mxCell>
                <mxCell id="111" style="edgeStyle=none;html=1;entryX=0;entryY=0.5;entryDx=0;entryDy=0;strokeWidth=3;fontColor=#FFFFFF;endArrow=none;endFill=0;" parent="33" source="88" target="103" edge="1">
                    <mxGeometry relative="1" as="geometry"/>
                </mxCell>
                <mxCell id="112" style="edgeStyle=none;html=1;entryX=0;entryY=0.5;entryDx=0;entryDy=0;strokeWidth=3;fontColor=#FFFFFF;endArrow=none;endFill=0;" parent="33" source="88" target="106" edge="1">
                    <mxGeometry relative="1" as="geometry"/>
                </mxCell>
                <mxCell id="113" style="edgeStyle=none;html=1;entryX=0;entryY=1;entryDx=0;entryDy=0;strokeWidth=3;fontColor=#FFFFFF;endArrow=none;endFill=0;" parent="33" source="88" target="100" edge="1">
                    <mxGeometry relative="1" as="geometry"/>
                </mxCell>
                <mxCell id="88" value="&lt;font color=&quot;#ffffff&quot;&gt;transit-gateway-us-east-1&lt;/font&gt;" style="sketch=0;points=[[0,0,0],[0.25,0,0],[0.5,0,0],[0.75,0,0],[1,0,0],[0,1,0],[0.25,1,0],[0.5,1,0],[0.75,1,0],[1,1,0],[0,0.25,0],[0,0.5,0],[0,0.75,0],[1,0.25,0],[1,0.5,0],[1,0.75,0]];outlineConnect=0;fontColor=#232F3E;gradientColor=#945DF2;gradientDirection=north;fillColor=#5A30B5;strokeColor=#ffffff;dashed=0;verticalLabelPosition=bottom;verticalAlign=top;align=center;html=1;fontSize=12;fontStyle=0;aspect=fixed;shape=mxgraph.aws4.resourceIcon;resIcon=mxgraph.aws4.transit_gateway;container=0;" parent="33" vertex="1">
                    <mxGeometry x="1170" y="490" width="78" height="78" as="geometry"/>
                </mxCell>
                <mxCell id="78" value="hub-01-nprd" style="points=[[0,0],[0.25,0],[0.5,0],[0.75,0],[1,0],[1,0.25],[1,0.5],[1,0.75],[1,1],[0.75,1],[0.5,1],[0.25,1],[0,1],[0,0.75],[0,0.5],[0,0.25]];outlineConnect=0;gradientColor=none;html=1;whiteSpace=wrap;fontSize=12;fontStyle=0;container=0;pointerEvents=0;collapsible=0;recursiveResize=0;shape=mxgraph.aws4.group;grIcon=mxgraph.aws4.group_aws_cloud;strokeColor=#232F3E;fillColor=none;verticalAlign=top;align=left;spacingLeft=30;fontColor=#232F3E;dashed=0;" parent="33" vertex="1">
                    <mxGeometry x="1160" y="90" width="250" height="265" as="geometry"/>
                </mxCell>
                <mxCell id="83" value="hub-01-prd" style="points=[[0,0],[0.25,0],[0.5,0],[0.75,0],[1,0],[1,0.25],[1,0.5],[1,0.75],[1,1],[0.75,1],[0.5,1],[0.25,1],[0,1],[0,0.75],[0,0.5],[0,0.25]];outlineConnect=0;gradientColor=none;html=1;whiteSpace=wrap;fontSize=12;fontStyle=0;container=0;pointerEvents=0;collapsible=0;recursiveResize=0;shape=mxgraph.aws4.group;grIcon=mxgraph.aws4.group_aws_cloud;strokeColor=#232F3E;fillColor=none;verticalAlign=top;align=left;spacingLeft=30;fontColor=#232F3E;dashed=0;" parent="33" vertex="1">
                    <mxGeometry x="1460" y="90" width="250" height="265" as="geometry"/>
                </mxCell>
                <mxCell id="79" value="&lt;b style=&quot;&quot;&gt;&lt;font&gt;hub01-saeast1-nprd&lt;/font&gt;&lt;/b&gt;" style="points=[[0,0],[0.25,0],[0.5,0],[0.75,0],[1,0],[1,0.25],[1,0.5],[1,0.75],[1,1],[0.75,1],[0.5,1],[0.25,1],[0,1],[0,0.75],[0,0.5],[0,0.25]];outlineConnect=0;html=1;whiteSpace=wrap;fontSize=12;fontStyle=0;container=0;pointerEvents=0;collapsible=0;recursiveResize=0;shape=mxgraph.aws4.group;grIcon=mxgraph.aws4.group_vpc;strokeColor=#0e8088;fillColor=#b0e3e6;verticalAlign=top;align=left;spacingLeft=30;dashed=0;fontColor=#0d8088;" parent="33" vertex="1">
                    <mxGeometry x="1185" y="120" width="225" height="210" as="geometry"/>
                </mxCell>
                <mxCell id="80" value="10.108.64.0/19" style="text;html=1;align=left;verticalAlign=middle;resizable=0;points=[];autosize=1;strokeColor=none;fillColor=none;fontColor=#0d8088;fontStyle=1;container=0;" parent="33" vertex="1">
                    <mxGeometry x="1215" y="155" width="100" height="30" as="geometry"/>
                </mxCell>
                <mxCell id="81" value="firewall-nprd-&lt;br&gt;saeast1-inout01" style="sketch=0;points=[[0,0,0],[0.25,0,0],[0.5,0,0],[0.75,0,0],[1,0,0],[0,1,0],[0.25,1,0],[0.5,1,0],[0.75,1,0],[1,1,0],[0,0.25,0],[0,0.5,0],[0,0.75,0],[1,0.25,0],[1,0.5,0],[1,0.75,0]];outlineConnect=0;fontColor=#232F3E;gradientColor=#F78E04;gradientDirection=north;fillColor=#D05C17;strokeColor=#ffffff;dashed=0;verticalLabelPosition=bottom;verticalAlign=top;align=center;html=1;fontSize=12;fontStyle=0;aspect=fixed;shape=mxgraph.aws4.resourceIcon;resIcon=mxgraph.aws4.ec2;container=0;" parent="33" vertex="1">
                    <mxGeometry x="1210" y="207" width="78" height="78" as="geometry"/>
                </mxCell>
                <mxCell id="82" value="firewall-nprd-&lt;br&gt;saeast1-lateral01" style="sketch=0;points=[[0,0,0],[0.25,0,0],[0.5,0,0],[0.75,0,0],[1,0,0],[0,1,0],[0.25,1,0],[0.5,1,0],[0.75,1,0],[1,1,0],[0,0.25,0],[0,0.5,0],[0,0.75,0],[1,0.25,0],[1,0.5,0],[1,0.75,0]];outlineConnect=0;fontColor=#232F3E;gradientColor=#F78E04;gradientDirection=north;fillColor=#D05C17;strokeColor=#ffffff;dashed=0;verticalLabelPosition=bottom;verticalAlign=top;align=center;html=1;fontSize=12;fontStyle=0;aspect=fixed;shape=mxgraph.aws4.resourceIcon;resIcon=mxgraph.aws4.ec2;container=0;" parent="33" vertex="1">
                    <mxGeometry x="1315" y="207" width="78" height="78" as="geometry"/>
                </mxCell>
                <mxCell id="84" value="&lt;b style=&quot;&quot;&gt;&lt;font&gt;hub01-&lt;/font&gt;&lt;/b&gt;&lt;b&gt;saeast1&lt;/b&gt;&lt;b style=&quot;&quot;&gt;&lt;font&gt;-prd&lt;/font&gt;&lt;/b&gt;" style="points=[[0,0],[0.25,0],[0.5,0],[0.75,0],[1,0],[1,0.25],[1,0.5],[1,0.75],[1,1],[0.75,1],[0.5,1],[0.25,1],[0,1],[0,0.75],[0,0.5],[0,0.25]];outlineConnect=0;html=1;whiteSpace=wrap;fontSize=12;fontStyle=0;container=0;pointerEvents=0;collapsible=0;recursiveResize=0;shape=mxgraph.aws4.group;grIcon=mxgraph.aws4.group_vpc;strokeColor=#0e8088;fillColor=#b0e3e6;verticalAlign=top;align=left;spacingLeft=30;dashed=0;fontColor=#0d8088;" parent="33" vertex="1">
                    <mxGeometry x="1485" y="120" width="225" height="210" as="geometry"/>
                </mxCell>
                <mxCell id="85" value="10.108.96.0/19" style="text;html=1;align=left;verticalAlign=middle;resizable=0;points=[];autosize=1;strokeColor=none;fillColor=none;fontColor=#0d8088;fontStyle=1;container=0;" parent="33" vertex="1">
                    <mxGeometry x="1515" y="155" width="100" height="30" as="geometry"/>
                </mxCell>
                <mxCell id="86" value="firewall-prd-&lt;br&gt;saeast1-inout01" style="sketch=0;points=[[0,0,0],[0.25,0,0],[0.5,0,0],[0.75,0,0],[1,0,0],[0,1,0],[0.25,1,0],[0.5,1,0],[0.75,1,0],[1,1,0],[0,0.25,0],[0,0.5,0],[0,0.75,0],[1,0.25,0],[1,0.5,0],[1,0.75,0]];outlineConnect=0;fontColor=#232F3E;gradientColor=#F78E04;gradientDirection=north;fillColor=#D05C17;strokeColor=#ffffff;dashed=0;verticalLabelPosition=bottom;verticalAlign=top;align=center;html=1;fontSize=12;fontStyle=0;aspect=fixed;shape=mxgraph.aws4.resourceIcon;resIcon=mxgraph.aws4.ec2;container=0;" parent="33" vertex="1">
                    <mxGeometry x="1510" y="207" width="78" height="78" as="geometry"/>
                </mxCell>
                <mxCell id="87" value="firewall-prd-&lt;br&gt;saeast1-lateral01" style="sketch=0;points=[[0,0,0],[0.25,0,0],[0.5,0,0],[0.75,0,0],[1,0,0],[0,1,0],[0.25,1,0],[0.5,1,0],[0.75,1,0],[1,1,0],[0,0.25,0],[0,0.5,0],[0,0.75,0],[1,0.25,0],[1,0.5,0],[1,0.75,0]];outlineConnect=0;fontColor=#232F3E;gradientColor=#F78E04;gradientDirection=north;fillColor=#D05C17;strokeColor=#ffffff;dashed=0;verticalLabelPosition=bottom;verticalAlign=top;align=center;html=1;fontSize=12;fontStyle=0;aspect=fixed;shape=mxgraph.aws4.resourceIcon;resIcon=mxgraph.aws4.ec2;container=0;" parent="33" vertex="1">
                    <mxGeometry x="1615" y="207" width="78" height="78" as="geometry"/>
                </mxCell>
                <mxCell id="99" value="dev-01" style="points=[[0,0],[0.25,0],[0.5,0],[0.75,0],[1,0],[1,0.25],[1,0.5],[1,0.75],[1,1],[0.75,1],[0.5,1],[0.25,1],[0,1],[0,0.75],[0,0.5],[0,0.25]];outlineConnect=0;gradientColor=none;html=1;whiteSpace=wrap;fontSize=12;fontStyle=0;container=1;pointerEvents=0;collapsible=0;recursiveResize=0;shape=mxgraph.aws4.group;grIcon=mxgraph.aws4.group_aws_cloud;strokeColor=#232F3E;fillColor=none;verticalAlign=top;align=left;spacingLeft=30;fontColor=#232F3E;dashed=0;" parent="33" vertex="1">
                    <mxGeometry x="1750" y="230" width="280" height="140" as="geometry"/>
                </mxCell>
                <mxCell id="100" value="&lt;b style=&quot;&quot;&gt;&lt;font&gt;spoke-dev01-&lt;/font&gt;&lt;/b&gt;&lt;b&gt;saeast1&lt;/b&gt;&lt;b style=&quot;&quot;&gt;&lt;font&gt;-vpc01&lt;/font&gt;&lt;/b&gt;" style="points=[[0,0],[0.25,0],[0.5,0],[0.75,0],[1,0],[1,0.25],[1,0.5],[1,0.75],[1,1],[0.75,1],[0.5,1],[0.25,1],[0,1],[0,0.75],[0,0.5],[0,0.25]];outlineConnect=0;html=1;whiteSpace=wrap;fontSize=12;fontStyle=0;container=1;pointerEvents=0;collapsible=0;recursiveResize=0;shape=mxgraph.aws4.group;grIcon=mxgraph.aws4.group_vpc;strokeColor=#0e8088;fillColor=#b0e3e6;verticalAlign=top;align=left;spacingLeft=30;dashed=0;fontColor=#0d8088;" parent="99" vertex="1">
                    <mxGeometry x="25" y="30" width="230" height="90" as="geometry"/>
                </mxCell>
                <mxCell id="101" value="10.112.0.0/16" style="text;html=1;align=left;verticalAlign=middle;resizable=0;points=[];autosize=1;strokeColor=none;fillColor=none;fontColor=#0d8088;fontStyle=1" parent="100" vertex="1">
                    <mxGeometry x="30" y="35" width="100" height="30" as="geometry"/>
                </mxCell>
                <mxCell id="102" value="prd-01" style="points=[[0,0],[0.25,0],[0.5,0],[0.75,0],[1,0],[1,0.25],[1,0.5],[1,0.75],[1,1],[0.75,1],[0.5,1],[0.25,1],[0,1],[0,0.75],[0,0.5],[0,0.25]];outlineConnect=0;gradientColor=none;html=1;whiteSpace=wrap;fontSize=12;fontStyle=0;container=1;pointerEvents=0;collapsible=0;recursiveResize=0;shape=mxgraph.aws4.group;grIcon=mxgraph.aws4.group_aws_cloud;strokeColor=#232F3E;fillColor=none;verticalAlign=top;align=left;spacingLeft=30;fontColor=#232F3E;dashed=0;" parent="33" vertex="1">
                    <mxGeometry x="1750" y="535" width="280" height="140" as="geometry"/>
                </mxCell>
                <mxCell id="103" value="&lt;b style=&quot;&quot;&gt;&lt;font&gt;spoke-prd01-&lt;/font&gt;&lt;/b&gt;&lt;b&gt;saeast1&lt;/b&gt;&lt;b style=&quot;&quot;&gt;&lt;font&gt;-vpc01&lt;/font&gt;&lt;/b&gt;" style="points=[[0,0],[0.25,0],[0.5,0],[0.75,0],[1,0],[1,0.25],[1,0.5],[1,0.75],[1,1],[0.75,1],[0.5,1],[0.25,1],[0,1],[0,0.75],[0,0.5],[0,0.25]];outlineConnect=0;html=1;whiteSpace=wrap;fontSize=12;fontStyle=0;container=1;pointerEvents=0;collapsible=0;recursiveResize=0;shape=mxgraph.aws4.group;grIcon=mxgraph.aws4.group_vpc;strokeColor=#0e8088;fillColor=#b0e3e6;verticalAlign=top;align=left;spacingLeft=30;dashed=0;fontColor=#0d8088;" parent="102" vertex="1">
                    <mxGeometry x="25" y="30" width="230" height="90" as="geometry"/>
                </mxCell>
                <mxCell id="104" value="10.120.0.0/16" style="text;html=1;align=left;verticalAlign=middle;resizable=0;points=[];autosize=1;strokeColor=none;fillColor=none;fontColor=#0d8088;fontStyle=1" parent="103" vertex="1">
                    <mxGeometry x="30" y="35" width="100" height="30" as="geometry"/>
                </mxCell>
                <mxCell id="105" value="hml-01" style="points=[[0,0],[0.25,0],[0.5,0],[0.75,0],[1,0],[1,0.25],[1,0.5],[1,0.75],[1,1],[0.75,1],[0.5,1],[0.25,1],[0,1],[0,0.75],[0,0.5],[0,0.25]];outlineConnect=0;gradientColor=none;html=1;whiteSpace=wrap;fontSize=12;fontStyle=0;container=1;pointerEvents=0;collapsible=0;recursiveResize=0;shape=mxgraph.aws4.group;grIcon=mxgraph.aws4.group_aws_cloud;strokeColor=#232F3E;fillColor=none;verticalAlign=top;align=left;spacingLeft=30;fontColor=#232F3E;dashed=0;" parent="33" vertex="1">
                    <mxGeometry x="1750" y="382" width="280" height="140" as="geometry"/>
                </mxCell>
                <mxCell id="106" value="&lt;b style=&quot;&quot;&gt;&lt;font&gt;spoke-hml01-&lt;/font&gt;&lt;/b&gt;&lt;b&gt;saeast1&lt;/b&gt;&lt;b style=&quot;&quot;&gt;&lt;font&gt;-vpc01&lt;/font&gt;&lt;/b&gt;" style="points=[[0,0],[0.25,0],[0.5,0],[0.75,0],[1,0],[1,0.25],[1,0.5],[1,0.75],[1,1],[0.75,1],[0.5,1],[0.25,1],[0,1],[0,0.75],[0,0.5],[0,0.25]];outlineConnect=0;html=1;whiteSpace=wrap;fontSize=12;fontStyle=0;container=1;pointerEvents=0;collapsible=0;recursiveResize=0;shape=mxgraph.aws4.group;grIcon=mxgraph.aws4.group_vpc;strokeColor=#0e8088;fillColor=#b0e3e6;verticalAlign=top;align=left;spacingLeft=30;dashed=0;fontColor=#0d8088;" parent="105" vertex="1">
                    <mxGeometry x="25" y="30" width="230" height="90" as="geometry"/>
                </mxCell>
                <mxCell id="107" value="10.116.0.0/16" style="text;html=1;align=left;verticalAlign=middle;resizable=0;points=[];autosize=1;strokeColor=none;fillColor=none;fontColor=#0d8088;fontStyle=1" parent="106" vertex="1">
                    <mxGeometry x="30" y="35" width="100" height="30" as="geometry"/>
                </mxCell>
                <mxCell id="122" value="" style="sketch=0;outlineConnect=0;fontColor=#232F3E;gradientColor=none;fillColor=#4D27AA;strokeColor=none;dashed=0;verticalLabelPosition=bottom;verticalAlign=top;align=center;html=1;fontSize=12;fontStyle=0;aspect=fixed;pointerEvents=1;shape=mxgraph.aws4.internet_gateway;" parent="33" vertex="1">
                    <mxGeometry x="1350" y="130" width="50" height="50" as="geometry"/>
                </mxCell>
                <mxCell id="123" value="" style="sketch=0;outlineConnect=0;fontColor=#232F3E;gradientColor=none;fillColor=#4D27AA;strokeColor=none;dashed=0;verticalLabelPosition=bottom;verticalAlign=top;align=center;html=1;fontSize=12;fontStyle=0;aspect=fixed;pointerEvents=1;shape=mxgraph.aws4.internet_gateway;" parent="33" vertex="1">
                    <mxGeometry x="1650" y="130" width="50" height="50" as="geometry"/>
                </mxCell>
                <mxCell id="10" style="edgeStyle=none;html=1;exitX=1;exitY=0.25;exitDx=0;exitDy=0;entryX=0;entryY=0.25;entryDx=0;entryDy=0;strokeWidth=3;endArrow=none;endFill=0;" parent="1" source="6" target="8" edge="1">
                    <mxGeometry relative="1" as="geometry"/>
                </mxCell>
                <mxCell id="6" value="" style="whiteSpace=wrap;html=1;aspect=fixed;fillColor=#f5f5f5;fontColor=#333333;strokeColor=#666666;" parent="1" vertex="1">
                    <mxGeometry x="160" y="160" width="160" height="160" as="geometry"/>
                </mxCell>
                <mxCell id="2" value="onprem-datacenter-01" style="points=[];aspect=fixed;html=1;align=center;shadow=0;dashed=0;image;image=img/lib/allied_telesis/buildings/Medium_Business_Building.svg;" parent="1" vertex="1">
                    <mxGeometry x="208.81" y="200" width="62.38" height="80.2" as="geometry"/>
                </mxCell>
                <mxCell id="11" style="edgeStyle=none;html=1;exitX=0;exitY=0.75;exitDx=0;exitDy=0;entryX=1;entryY=0.75;entryDx=0;entryDy=0;strokeWidth=3;endArrow=none;endFill=0;" parent="1" source="8" target="6" edge="1">
                    <mxGeometry relative="1" as="geometry"/>
                </mxCell>
                <mxCell id="8" value="" style="whiteSpace=wrap;html=1;aspect=fixed;fillColor=#f5f5f5;fontColor=#333333;strokeColor=#666666;" parent="1" vertex="1">
                    <mxGeometry x="560" y="160.1" width="160" height="160" as="geometry"/>
                </mxCell>
                <mxCell id="9" value="onprem-datacenter-02" style="points=[];aspect=fixed;html=1;align=center;shadow=0;dashed=0;image;image=img/lib/allied_telesis/buildings/Medium_Business_Building.svg;" parent="1" vertex="1">
                    <mxGeometry x="608.81" y="200.1" width="62.38" height="80.2" as="geometry"/>
                </mxCell>
                <mxCell id="19" style="edgeStyle=none;html=1;entryX=0.25;entryY=0;entryDx=0;entryDy=0;strokeWidth=3;fontColor=#FFFFFF;endArrow=none;endFill=0;" parent="1" source="12" target="6" edge="1">
                    <mxGeometry relative="1" as="geometry"/>
                </mxCell>
                <mxCell id="12" value="datacenter-01-link01" style="sketch=0;points=[[0,0,0],[0.25,0,0],[0.5,0,0],[0.75,0,0],[1,0,0],[0,1,0],[0.25,1,0],[0.5,1,0],[0.75,1,0],[1,1,0],[0,0.25,0],[0,0.5,0],[0,0.75,0],[1,0.25,0],[1,0.5,0],[1,0.75,0]];outlineConnect=0;fontColor=#FFFFFF;gradientColor=#945DF2;gradientDirection=north;fillColor=#5A30B5;strokeColor=#ffffff;dashed=0;verticalLabelPosition=bottom;verticalAlign=top;align=center;html=1;fontSize=12;fontStyle=0;aspect=fixed;shape=mxgraph.aws4.resourceIcon;resIcon=mxgraph.aws4.direct_connect;" parent="1" vertex="1">
                    <mxGeometry x="122" y="-78" width="78" height="78" as="geometry"/>
                </mxCell>
                <mxCell id="18" style="edgeStyle=none;html=1;entryX=0.75;entryY=0;entryDx=0;entryDy=0;strokeWidth=3;fontColor=#FFFFFF;endArrow=none;endFill=0;" parent="1" source="13" target="6" edge="1">
                    <mxGeometry relative="1" as="geometry"/>
                </mxCell>
                <mxCell id="26" style="edgeStyle=none;html=1;entryX=0.333;entryY=0.889;entryDx=0;entryDy=0;entryPerimeter=0;strokeWidth=3;fontColor=#FFFFFF;endArrow=none;endFill=0;" parent="1" source="13" target="25" edge="1">
                    <mxGeometry relative="1" as="geometry"/>
                </mxCell>
                <mxCell id="13" value="datacenter-01-link02" style="sketch=0;points=[[0,0,0],[0.25,0,0],[0.5,0,0],[0.75,0,0],[1,0,0],[0,1,0],[0.25,1,0],[0.5,1,0],[0.75,1,0],[1,1,0],[0,0.25,0],[0,0.5,0],[0,0.75,0],[1,0.25,0],[1,0.5,0],[1,0.75,0]];outlineConnect=0;fontColor=#FFFFFF;gradientColor=#945DF2;gradientDirection=north;fillColor=#5A30B5;strokeColor=#ffffff;dashed=0;verticalLabelPosition=bottom;verticalAlign=top;align=center;html=1;fontSize=12;fontStyle=0;aspect=fixed;shape=mxgraph.aws4.resourceIcon;resIcon=mxgraph.aws4.direct_connect;" parent="1" vertex="1">
                    <mxGeometry x="280" y="-78" width="78" height="78" as="geometry"/>
                </mxCell>
                <mxCell id="17" style="edgeStyle=none;html=1;entryX=0.25;entryY=0;entryDx=0;entryDy=0;strokeWidth=3;fontColor=#FFFFFF;endArrow=none;endFill=0;" parent="1" source="14" target="8" edge="1">
                    <mxGeometry relative="1" as="geometry"/>
                </mxCell>
                <mxCell id="28" style="edgeStyle=none;html=1;entryX=0.75;entryY=1;entryDx=0;entryDy=0;strokeWidth=3;fontColor=#FFFFFF;endArrow=none;endFill=0;" parent="1" source="14" target="25" edge="1">
                    <mxGeometry relative="1" as="geometry"/>
                </mxCell>
                <mxCell id="14" value="datacenter-02-link01" style="sketch=0;points=[[0,0,0],[0.25,0,0],[0.5,0,0],[0.75,0,0],[1,0,0],[0,1,0],[0.25,1,0],[0.5,1,0],[0.75,1,0],[1,1,0],[0,0.25,0],[0,0.5,0],[0,0.75,0],[1,0.25,0],[1,0.5,0],[1,0.75,0]];outlineConnect=0;fontColor=#FFFFFF;gradientColor=#945DF2;gradientDirection=north;fillColor=#5A30B5;strokeColor=#ffffff;dashed=0;verticalLabelPosition=bottom;verticalAlign=top;align=center;html=1;fontSize=12;fontStyle=0;aspect=fixed;shape=mxgraph.aws4.resourceIcon;resIcon=mxgraph.aws4.direct_connect;" parent="1" vertex="1">
                    <mxGeometry x="522" y="-78" width="78" height="78" as="geometry"/>
                </mxCell>
                <mxCell id="16" style="edgeStyle=none;html=1;entryX=0.75;entryY=0;entryDx=0;entryDy=0;strokeWidth=3;fontColor=#FFFFFF;endArrow=none;endFill=0;" parent="1" source="15" target="8" edge="1">
                    <mxGeometry relative="1" as="geometry"/>
                </mxCell>
                <mxCell id="29" style="edgeStyle=none;html=1;entryX=1;entryY=1;entryDx=0;entryDy=0;strokeWidth=3;fontColor=#FFFFFF;endArrow=none;endFill=0;" parent="1" source="15" target="25" edge="1">
                    <mxGeometry relative="1" as="geometry"/>
                </mxCell>
                <mxCell id="15" value="datacenter-02-link02" style="sketch=0;points=[[0,0,0],[0.25,0,0],[0.5,0,0],[0.75,0,0],[1,0,0],[0,1,0],[0.25,1,0],[0.5,1,0],[0.75,1,0],[1,1,0],[0,0.25,0],[0,0.5,0],[0,0.75,0],[1,0.25,0],[1,0.5,0],[1,0.75,0]];outlineConnect=0;fontColor=#FFFFFF;gradientColor=#945DF2;gradientDirection=north;fillColor=#5A30B5;strokeColor=#ffffff;dashed=0;verticalLabelPosition=bottom;verticalAlign=top;align=center;html=1;fontSize=12;fontStyle=0;aspect=fixed;shape=mxgraph.aws4.resourceIcon;resIcon=mxgraph.aws4.direct_connect;" parent="1" vertex="1">
                    <mxGeometry x="680" y="-78" width="78" height="78" as="geometry"/>
                </mxCell>
                <mxCell id="27" style="edgeStyle=none;html=1;entryX=0;entryY=1;entryDx=0;entryDy=0;strokeWidth=3;fontColor=#FFFFFF;endArrow=none;endFill=0;" parent="1" source="12" target="25" edge="1">
                    <mxGeometry relative="1" as="geometry"/>
                </mxCell>
                <mxCell id="25" value="Direct Connect Gateway" style="shape=image;verticalLabelPosition=bottom;labelBackgroundColor=default;verticalAlign=top;aspect=fixed;imageAspect=0;image=data:image/png,iVBORw0KGgoAAAANSUhEUgAAAKAAAACgCAYAAACLz2ctAAAKqWlDQ1BJQ0MgUHJvZmlsZQAASImVlwdUU+kSgP97bzoJLSHSCb1JbwGkhB56b6ISkgChxBgICnZkcQVWFBERUBZkVUTBtQCyFsSChUWw9wVZRNR1sWBD5V3gEHb3nffeeXPPnP+7k/ln5r/nn3MmAFBoHJEoA5YHIFOYLQ739WDExsUz8CMAAWqADmyBIoebJWKFhgYCVGbXv8v72wCaWm+YTcX699//qyjw+FlcAKBQlJN4WdxMlI+hOsYVibMBQBpQu+7ybNEUX0KZJkYLRPnhFKfM8NgUJ00zBjPtExnuibIyAAQyhyNOAYCsh9oZOdwUNA7ZC2VLIU8gRBl9B66ZmUt5KKN5gRHqI0J5Kj4z6S9xUv4WM0kak8NJkfLMWaaF4CXIEmVwcv/Pz/G/JTNDMpvDAFVyqtgvHF3RuqC76UsDpCxMCg6ZZQFv2n+aUyV+UbPMzfKMn2UexytAujcjOHCWkwU+bGmcbHbkLPOzvCNmWbw0XJorWezJmmWOeC6vJD1Kak/ls6Xx81IjY2Y5RxAdPMtZ6REBcz6eUrtYEi6tny/09ZjL6yM9e2bWX84rYEv3ZqdG+knPzpmrny9kzcXMipXWxuN7ec/5REn9Rdke0lyijFCpPz/DV2rPyomQ7s1GL+Tc3lDpN0zj+IfOMvAC3iAQfRggClgDB1RtQBjwzuavmLqjwHOpKFcsSEnNZrDQLuMz2EKu+XyGtaW1DQBTPTtzJd7ene5FiE6YsxXkA7BgEoVrc7YgVI9sQ6/PyjmbPlqXPNoTF37nSsQ5M7apdgJYQAJygAZUgCbQBUbADK3NHjgDd7RifxACIkEcWAy4IBVkAjFYDlaB9aAQFIMtYDuoArVgD9gPDoEjoA2cBGfBRXAV9IFb4AEYAMPgBRgD78EEBEF4iAJRIRVIC9KHTCFriAm5Qt5QIBQOxUGJUAokhCTQKmgDVAyVQVVQHdQI/QydgM5Cl6F+6B40CI1Cb6DPMAKTYRqsARvAFjATZsEBcCS8CE6Bl8F5cAG8Ga6E6+GDcCt8Fr4K34IH4BfwOAIQGYSOaCNmCBPxREKQeCQZESNrkCKkAqlHmpEOpBu5gQwgL5FPGByGimFgzDDOGD9MFIaLWYZZgynBVGH2Y1ox5zE3MIOYMcw3LAWrjjXFOmHZ2FhsCnY5thBbgd2LPY69gL2FHca+x+FwdJwhzgHnh4vDpeFW4kpwu3AtuE5cP24IN47H41XwpngXfAieg8/GF+J34g/iz+Cv44fxHwkyBC2CNcGHEE8QEvIJFYQDhNOE64QRwgRRnqhPdCKGEHnEXGIpsYHYQbxGHCZOkBRIhiQXUiQpjbSeVElqJl0gPSS9lZGR0ZFxlAmTEcisk6mUOSxzSWZQ5hNZkWxC9iQnkCXkzeR95E7yPfJbCoViQHGnxFOyKZspjZRzlMeUj7JUWXNZtixPdq1stWyr7HXZV3JEOX05ltxiuTy5CrmjctfkXsoT5Q3kPeU58mvkq+VPyN+RH1egKlgphChkKpQoHFC4rPBMEa9ooOityFMsUNyjeE5xiIpQdameVC51A7WBeoE6TMPRDGlsWhqtmHaI1ksbU1JUslWKVlqhVK10SmmAjtAN6Gx6Br2UfoR+m/55nsY81jz+vE3zmuddn/dBWU3ZXZmvXKTconxL+bMKQ8VbJV1lq0qbyiNVjKqJapjqctXdqhdUX6rR1JzVuGpFakfU7qvD6ibq4eor1feo96iPa2hq+GqINHZqnNN4qUnXdNdM0yzXPK05qkXVctUSaJVrndF6zlBisBgZjErGecaYtrq2n7ZEu067V3tCx1AnSidfp0XnkS5Jl6mbrFuu26U7pqelF6S3Sq9J774+UZ+pn6q/Q79b/4OBoUGMwUaDNoNnhsqGbMM8wybDh0YUIzejZUb1RjeNccZM43TjXcZ9JrCJnUmqSbXJNVPY1N5UYLrLtH8+dr7jfOH8+vl3zMhmLLMcsyazQXO6eaB5vnmb+SsLPYt4i60W3RbfLO0sMywbLB9YKVr5W+VbdVi9sTax5lpXW9+0odj42Ky1abd5bWtqy7fdbXvXjmoXZLfRrsvuq72Dvdi+2X7UQc8h0aHG4Q6TxgxlljAvOWIdPRzXOp50/ORk75TtdMTpT2cz53TnA87PFhgu4C9oWDDkouPCcalzGXBluCa6/ug64KbtxnGrd3viruvOc9/rPsIyZqWxDrJeeVh6iD2Oe3zwdPJc7dnphXj5ehV59Xorekd5V3k/9tHxSfFp8hnztfNd6dvph/UL8Nvqd4etweayG9lj/g7+q/3PB5ADIgKqAp4EmgSKAzuC4CD/oG1BD4P1g4XBbSEghB2yLeRRqGHostBfwnBhoWHVYU/DrcJXhXdHUCOWRByIeB/pEVka+SDKKEoS1RUtF50Q3Rj9IcYrpixmINYidnXs1TjVOEFcezw+Pjp+b/z4Qu+F2xcOJ9glFCbcXmS4aMWiy4tVF2csPrVEbglnydFEbGJM4oHEL5wQTj1nPImdVJM0xvXk7uC+4LnzynmjfBd+GX8k2SW5LPlZikvKtpTRVLfUitSXAk9BleB1ml9abdqH9JD0femTGTEZLZmEzMTME0JFYbrw/FLNpSuW9otMRYWigWVOy7YvGxMHiPdmQVmLstqzaehw1CMxknwnGcxxzanO+bg8evnRFQorhCt6ck1yN+WO5Pnk/bQSs5K7smuV9qr1qwZXs1bXrYHWJK3pWqu7tmDt8DrfdfvXk9anr/813zK/LP/dhpgNHQUaBesKhr7z/a6pULZQXHhno/PG2u8x3wu+791ks2nnpm9FvKIrxZbFFcVfSrglV36w+qHyh8nNyZt7S+1Ld2/BbRFuub3Vbev+MoWyvLKhbUHbWssZ5UXl77Yv2X65wraidgdph2THQGVgZftOvZ1bdn6pSq26Ve1R3VKjXrOp5sMu3q7ru913N9dq1BbXfv5R8OPdOt+61nqD+oo9uD05e542RDd0/8T8qXGv6t7ivV/3CfcN7A/ff77RobHxgPqB0ia4SdI0ejDhYN8hr0PtzWbNdS30luLD4LDk8POfE3++fSTgSNdR5tHmY/rHao5Tjxe1Qq25rWNtqW0D7XHt/Sf8T3R1OHcc/8X8l30ntU9Wn1I6VXqadLrg9OSZvDPjnaLOl2dTzg51Lel6cC723M3zYed7LwRcuHTR5+K5blb3mUsul05edrp84grzSttV+6utPXY9x3+1+/V4r31v6zWHa+19jn0d/Qv6T193u372hteNizfZN6/eCr7Vfzvq9t07CXcG7vLuPruXce/1/Zz7Ew/WPcQ+LHok/6jisfrj+t+Mf2sZsB84Neg12PMk4smDIe7Qi9+zfv8yXPCU8rRiRGuk8Zn1s5OjPqN9zxc+H34hejHxsvAPhT9qXhm9Ovan+589Y7Fjw6/FryfflLxVebvvne27rvHQ8cfvM99PfCj6qPJx/yfmp+7PMZ9HJpZ/wX+p/Gr8teNbwLeHk5mTkyKOmDM9CiCowsnJALzZBwAlDgBqHwCkhTMz9bRAM/8Dpgn8J56Zu6fFHoBDnQCEugPg1TnD+qhZzn3GFukOYBsbqc7Ov9Oz+pTIHwTAI9fD0S7wt/ItX8A/ZGaO/0vd/1yBNOrf1n8BXV0HgSDCfmkAAACKZVhJZk1NACoAAAAIAAQBGgAFAAAAAQAAAD4BGwAFAAAAAQAAAEYBKAADAAAAAQACAACHaQAEAAAAAQAAAE4AAAAAAAAAkAAAAAEAAACQAAAAAQADkoYABwAAABIAAAB4oAIABAAAAAEAAACgoAMABAAAAAEAAACgAAAAAEFTQ0lJAAAAU2NyZWVuc2hvdFmqRkcAAAAJcEhZcwAAFiUAABYlAUlSJPAAAAHWaVRYdFhNTDpjb20uYWRvYmUueG1wAAAAAAA8eDp4bXBtZXRhIHhtbG5zOng9ImFkb2JlOm5zOm1ldGEvIiB4OnhtcHRrPSJYTVAgQ29yZSA2LjAuMCI+CiAgIDxyZGY6UkRGIHhtbG5zOnJkZj0iaHR0cDovL3d3dy53My5vcmcvMTk5OS8wMi8yMi1yZGYtc3ludGF4LW5zIyI+CiAgICAgIDxyZGY6RGVzY3JpcHRpb24gcmRmOmFib3V0PSIiCiAgICAgICAgICAgIHhtbG5zOmV4aWY9Imh0dHA6Ly9ucy5hZG9iZS5jb20vZXhpZi8xLjAvIj4KICAgICAgICAgPGV4aWY6UGl4ZWxZRGltZW5zaW9uPjE2MDwvZXhpZjpQaXhlbFlEaW1lbnNpb24+CiAgICAgICAgIDxleGlmOlBpeGVsWERpbWVuc2lvbj4xNjA8L2V4aWY6UGl4ZWxYRGltZW5zaW9uPgogICAgICAgICA8ZXhpZjpVc2VyQ29tbWVudD5TY3JlZW5zaG90PC9leGlmOlVzZXJDb21tZW50PgogICAgICA8L3JkZjpEZXNjcmlwdGlvbj4KICAgPC9yZGY6UkRGPgo8L3g6eG1wbWV0YT4KjaehOgAAABxpRE9UAAAAAgAAAAAAAABQAAAAKAAAAFAAAABQAAAhDyd7zVMAACDbSURBVHgB7J2Hd1vHlcaHvYNF7KQkqlu2ZatEsdxi2fFuNtnsns3JyT+52d3jbE6ysWM7luUuW8VV3WrsvVeR+/3uYCiYAEmQBECIwpxDgQJJvPfmfXPLd7+5L6+rq2up586su3xu1PGaG7kZSPcMNHeUuOOvVTte8wDgne+n3Ad/HHS85kZuBtI9Ax1Pl7uzf9jleM0BMN2znfv8uBnIATBuSnJvZHIGcgDM5GznjhU3AzkAxk1J7o1MzkAOgJmc7dyx4mYgB8C4Kcm9kckZyAEwk7OdO1bcDOQAGDcluTcyOQM5AGZytnPHipuBHADjpiT3RiZnIAfATM527lhxM5ADYNyU5N7I5AzkAJjJ2c4dK24GcgCMm5LcG5mcgRwAMznbuWPFzUAOgHFT4t/Iz89zBYV5Lp+vfOcKC/NdcWm+KyjKt//n6ecM/6//m9h/l8J/9M3i4pJbmF9yczMP9broFh/qvYdL7uHCkv0s/OqT+JoD4Cp3vag435VXFbqS8nxXWJznKiJFrq6x1FVWFwmIHpwubzX4RT9U4HsooC3MLbmJ0Xk32DNtr/OzS252etFNjy+4+bnFVc7gyXj7iQUg2MnTPwVFeWbZiksLXIksHMArkLUrLS8w0JVW6L2SfA/ApigASzwA+fu1BlZwUVZu3gA4JwDOLANwZvKhmxybFxCxivzOQ1nIRbOSc7OL9t6SLOfSsild60iP78+eWAAGF1sRKXR1zcX6KnW79FVdV2xgK6soMhACSNwwr8UlBXqVSy7IM/Amc9sBEO4W1zuLC5bFwyrOC2SAb3pywU2Oz7vRwVk31DsjkM664d5ZNzkq6yhg8rc7eTwRAMRQARpcaYksXWlFoSuTheM1UlvkdrWUuLoWAVAWrnqXAFgF+ApdoeK9AsCmeC/W2K1n+VYCZinGjPGtB6WsnMA4IxACwLGhWbOQAHBIX2NDc256wgN0emrBzcllA2LAax+3Q3C54wEYwFdSlu8qawrNyrXuq3QNbWWupr7YVVUXC4hyv2WF5oqxdPHA+ykAVwJsI/8PWASUuFgARTISXDCAnJFVJGYcGZh1/V3TrvvOpBvsnnHjwwsGWKzi0g4JHXceAKOxXWE0tiuTlSOZqJKlw7o1tJa61v0CoF6r60ocP1/NpQISMljLVqOWJ8RlllxYRpvYFOHiATLu2xaB/slTNh1cP8ckh461rADZjqljYfXGBudcf7cHIEAc7ZelHJ5zU2ML5rpnFTM+lJs2MCc+jY2sjW353R0HQNwl9AmxHa61aXe5a91X4eoV30Vqo/FdpbLbMuI5Eg5AEJ9MBPDNz+IGH/r4DRe4wJdT/LbgxkfmLWlIdOeIF8mYS+TKCwo9jROonHIdv0g/D6595fE5treKj+LEKblpjjcgQHbennS996fcYJdiRYHxcaZzdgwAsShkq2Vyp5U1okwUzzXvKXPNez0AoVDKZe0KBbrYGx7rBomxoEX4IkEAZCQJU6JLcI3EbAsCIDzejCzUxFoAVKyZCIAAn8VRJhCSeduXzruo+NGCCHFnADaA5NzInIf7Z1znj5PmlnvvTbtBJSwTsoosEhIbLPPjNHYMAEuUVFTvKnKN7WVuz+FK17JXVq+lzEWU1eJmudFGLEcJZG5SsDQAbWrCWzRc3Khir+E+JQP6AmSAEVAuKu5adsGK2wAFLjrRCC7Yg8lTPkZoawFA8VRWF7qahhL/VV9i2XcVFhruUfHoSsvMcaB05swiyz0rSRlU1tx9d9LdvTbh+mQRRwfmtTC0Oh6j8VgDEM/pOTp/M5t2l5m73X3QJxncULJeLJ6MyDLgqEhAiWDFpgU8QEbQP64vbizB/0j/nKzNrOKteQHNJwt8hkuMt6RuOedrllrZeJmAViPgkQgBRBZKpKbYrDeWEzdNls75WwVG3CR/76/FA5Fz7u+cdvdujJtb7rs/rXOeM35xXvGhnW9SZ7Z9v/TYAtBuhqxZbWOx2/tUpaxeldt9sMqy3GBFcLdYICwdWSPuCcpjuG/GYqm+B1N6nXEjfbpp475MZi5Yrgx3hrUhyF/k77cIvnCLDYTEqUqSiEFZQMSLnCv/L6+UJW8oVvyqEELxK8lSrcIHqKHgmgFh4BYJDYgPB0Ryd96ecPeujbsffxgXlzi3bK3DsbPx9bEDoGWSAhU8XkRZLTHewecibvehKsV8FaJVipZjPEBD0oDFMxc7LPAphiKQJ6sEgPBuY4O42ezgNYpFF5Gx1zWV6HrKXaPoIgjyWllJLHq5gIhVpFoDmBkssAlZaq7n3o0Jd/PKqOtWnDg6JJesGJaFl620zWMHQCwHnB7u9vCJGrf3SJVrai931XJnkMdFoj78TfHx2tTEvGK5Gddzd8rduTqu7HFafJqoDBILxUuAk1JZtlQccNEQ5lhFYkUoJOJFYtt9T1e5lo4KEeZlspRaaLKkAYSWpMgaUlHpeyC3LEt47eKw69H1zuo6CSOycTw2AMTy4YLIcLkZe49UuiMnay3mg0wmyWB45YkyRk36xMicJRJ9nVOuSxaBYB1CN5tvyEqQkIwQA+5qLlGoUeXa9lfYgsMtYxEBKfSO5xWdhQ3UmCGvr14c0TWPK0Fh0c1nJV3z2AAQYpnJbleCcfzVetdxtMqCeGIjI3yjsR4xHHEeWeHt78YMeLjZUZG6WD0sXja7pJUAtJhR1wYIudaIMn0oJrjNA89GXKPixEq9TyxpsaGyZawhyRXWEKt/+aMBd//GZFaqb7IegGYBNLms9oa2Urf/mYh77qV6i/0MeHJDxEAoSAjGARqqEyzej9+Pud57U7b6qRrshAEQyZKbxHEyFwDRiyhKTETBz0OmTFjRo+v/+tNBW4xYQrJ8aCXI62wYWQ9AiOVaBeRwe0+frrNMF+oCioKJhhdhoodFndy7Pq6VPmFfA10zViWYFdWSblVJiMPCDbWMOfwnxa8WI0a9ARpFwNe6v9zt1vzse6pamsWS5dIiC5NQhEV5/+aE++HLIZujwW7RS/IG2TCyFoDB8iGT2qN47+Cz1Rbz1Yue8MAj+3NWqSCzJea5LYt3//qEMkBZPXF76RiAzcp9AkGxLDMJESQ4WemSFgIhgCU3Rl77xZFOQFYoQSEh232o0h04Vu3aJLSg6kOlJXZh4BWuXxl2t74ZdXdE0xCWZIMlzFoABstH4I3L3aMJrhJRSymLwU2lKoGL+eazQXFfY65f2d/ogC9LEQelehj4yFIFvvKIt8xWb1ZSRAY+r2Pi4iiRDSnZGRtaUMIjQljnmS4Qci4sAOrcnMv+p6vd86/UW7ZMNSaAkNiXRXn/5rj7VvNFbJgNljDrAGjWRTe5TlkfMc6h56vdU8p2KasxuJFkusR7Q6qD3r06ZgC8f3NSIk7EAakDXqy1Qy0NJYJlQb5VVadkQOdYL6K4SVzdTwEogltCARbDxAh0j6d8SAygfLCUqQYk1A2LliTt+ZcbRNlELHOGN4wFYrCEN8QV3vpmzOJlI9s1p9sxsg6AJBbc4A5Zvhf+uclAGEpqTBAZLAqVB7cm3MUP+i3RoGZLTAPXlSo+z4PPl/rKqgqsMrH7UIUoIHGOu0QKi/rhhlNnxiqbC9ZNxAUjYABskN8jykT7u6ZMvdJ129dr2RNCXTeVw2gqUTYArlZx4AEt3lOvNxggETpAYTGCJSRB++LdXrOEzB2Vn+0YWQPAUOGoEs9HdePQ8zXu1GsN5kqYGAJqwAXH1af6582vRw2ASJNSQauE41MOI66D8mEhULMl68TSEehTmYjUSkdYLvpHN9xbl2hJInoHOVeyzDnt8xgfEQBVeSFU6NK5UiLDLaP3o0pBvGgqFv0+1YqtWsZgtduUmJx6o1FVomrX2FrmKnQNVsqL+mSI+Uvn+zWPI67rzpSFDpxzpismWQPAUOFoP1DpTgp4B5R04HZxewxKat7yTbqL5/otmKaOO6nVazdtiwYlHB/X2ri71BTT3DisHVYODo6bCDCDRUkEvigGLUwwUlwgRPhgogdp97CKfD/YK13fjxMmJqAWPaVatLnCFIhZwBjzRoa8X1zhydfqzRKisoG0ZnAe7NKDK738Yb9lyUi62MGXyZEVAGTC0MjB87FiT51tdG0C4iOezym+U3CvWqdZPgGwU+5sU7GLjsXxyLKxdvBmuFBiO0peUD4AkGpLQ0u5BfcmFigq+EksxU0K2fhqNwxLGIaJIXDRCh9mJP8aQtcn8QDXNNwzJws0b2EEmj8EBmYVCSmIzR59TPi4dV+DRW/tKHcnflFv84pErVKJXOAJWdTwpZcEwBvyKL13/bbRmNNe9zhb/YVtByBgIPFAPHrspTpLOtoPVJnlCTeYLJKY78J7vTZRA52e4+MGb3SyQqxUWplvEigAx/4QFNPUWMkmy6RIweqVCphYO7g3rJ3OdDmr3OjEc54WRuhazD3PemtIMoU1gqsbkEUivKCWOypZFVZxWVa1URBGFxqyLoQNLOwX3mxy7RJtsPgCCKmLY4lJSq6cH5C+cDqtWfvKedt2AGKBUH+QdBA081pVU2K1XW4YbmFEujz4q8//3mtEatLiAd0EgANVQakK9wllQfLABqVqKUyosQJAwFdbL/5MwCuAvuALzGmEheD/t/V/g2XkFTBCGaFmGZBbNpWOKhZk+NRvrXwoi4hVtBo2wgmBONlYLVhCNJJnlNTBKlBH9jxhnpImvz8ZWubL9/vEEY75ylGG1EHbDkAytn3PVNkKPXK8RkF+ubleJs5KSarpfqtSEq4XqgVLkRSvFrUARQI4ZG2tNHa4VYhsboDtD1FcZ7QKwET4KQXKI5nTIwBuHXKJPwEAmmUUoAChiWQFNNsrLEDC25FFEy9S2cEyjstVz8944CblmqPzgOC1/WCFOyRLeOzFXSrlVSxnxhwbidoNJSTM880rY7YAEp91at/dNgDi1rBKrfvKRZzucgfF4luMInqDwc0Yl5qFFfnle1qZWqFs1qbmm2hgrfhME3pSoRCgyGKJLdENYumon5LYYOkqVcZiYxBBeTKWzsBClqqDW9hgN1b/rDIS/f56LnwZkEIlYtgpZcm2X1hyMpTPPXKPeANc84zctlVcNE/BIwDm1UDJXDMXiHdPvd7o9h2N2K7AQOzDLvRKNYSnufThgOu8Nbmcna9yiSl5e9sAGPZwQDaf/mWT6fpwfyQe3Ahk8VQ3WJFXvxqxKofxfLIWiYYlFaJPmOTqel8jRSeIcoQKCkJVfkYN2ScVNBnysVAAYKLP5T3OxzJaWQpusgFdf8trIvf8k9/X33Oc8OXBuxZw7YjLx4NXhLsjTmRBsmeFLwhlqJ0hvbJfGGoHj7Gaa+b4LE4SvcPHq+VxasQV4o71lEqdFFYQwhx5/wW54tvfjtm2BJKidI7MAzBqOdhA1C5i97D4PlO3SP3LRIQbTXZ25eMBA+Batd0Q4wCuXeLqrMsBiYVcLVsya2TtytVmw1TEugEBdGtNKiDDzT986HfI2d4R8XXQJ7rF4gC111jBfUVEOkRZ0VgAB/DhRhFIsOGJYxYqizZuUYkNdAjCWc49EYDDufFZYfjEBffs967gluHysIxD4haxjLYpaR3AkOnjCUhKTrzaYHukORcWE8cjK6dUd/3KiLt3VSGPqjm8H3Mq4ZRS8ppxAFqpTVlY894yAU9Zr1Yi3F9Em8QZuB70fKzAT//Wo8fGjlsiwgpNNAJ/1yy64Zmfo5aRLF+ZLLwdFtXiOk2wTyySu+FMNsE5dAmaOm4KnOOw+DpAgztHLr/7gHdjgCiA0Co1+luqH9cuD9teDdwilpdslBCgsbXcLHKgmcJ1rQlGLQhbnJa0+KSEDJraM/tBEGHgKWAI1gJL0FV2yAWf+Zcmq5hUxgh6sbJdd6JZ8UeDJuwA/Bw7HSPjACQWgSRFZHD6DV+zpLJALMLEMQEoW65fHnFf/aNf36/93GL7PAkDqH2e+VWTJEkRAx70iYFijViN49nq1uQiJMDVEXsuE8eqLZucX4kQAIQaAfBNe0vtOE//TMG8wOQzZu9WLZkQcO+aK+t1D8T1LcmLEXIglQKA3jJTTVFIEBIgxazwkgUFyVlGzh2Xa1sOxCkSqnz2Nx1PiZoBcB28tKjadEIE9WElfq1SWZOUsQCsVCfOldj7ArG3lDNrxd5bBWXGAWjyIVyAkg5zARJUkgzgpnB7xDW43htyAah4WeFrjbCJh41JL/26xXUcidiNzOdG8oceFz/5iODauFHmZpXYTIyxz1buTAE/e4LZ3mhiAlEhVFuIhSCHS5TY1LeJV9P5n3pNhLnkT7FuHcsJKG7Jgn/8126JJcatVMjvYI3hGKmoRFRxQddIjBoy82o4SIHSN8FMHF+GC/EgU59BLZhxAYb5+vBP3ZasWRy4DgChvtoOKCsWLXP8FUqe5dF7IOuvxdgtK+hDoLG0ytsyCkAsEtsNDykI5sKPHK+1cpGm2joOEGuR7X7+Tq+5YHgwJnitQQNJZOrUjl/51xa393DE1zx1w2MHNwzgYTXm5z2YZuXuietQ0RCvQUWw2RsA0pfFB/fRElk0AvDChBI7/zP/1GwC2dhkJIQQAOLcn7oshMCFheSA3y1Sf0E+h+zcrCKxq4BY2xDTPkQuG4vot5aGhCn2ivz3Bni5YmK2f/x3p8QZ43YsA2j8ry+/A//KQtgvCgx+EJdMSzqOyTyxdfXmt6Pmia59qSRQNNB6n7n84Rv4JmMABHxMPqvu9JuNdgOJhYjVCOwBApWAm6IBvnyv3z2Q9WMlApi1RjIANDdr1o7OpMomZTFG1Q6NjedsUupX3ATo2KCOpYPqwdrhTlGtMPFh8rcKQObB4mDI8WgpEDdcriQqdjsmdVw2rhOfWSwbQgpNRmysuFkAci+IB9nkdPKsL9Wh9OF+8PlYcWrFNy6rAPBOn9WKLcte+3asdasS/ixjAIQmQWWyT7TLK79tMbEBWwuNdpHrxfXd/m5EK3nU/XBBwbRWXDIjEQCZXAa1TkAEoKzPS3SnHMBDRW0AVMVhUMfC2lH2wlqtNbYKwLjPBpD6wirCW1bLLQfC3Fp3SAxBjEyWH5Kq2FiRfjWAZaMWMJwHCdWhE9ViI/BK0l0K+CwQ5oFM/ras4Pk/d5toAQV1qrd3ZgyAAAXqBf7p5d/gKlWTVHbK4GIfSKkL/wQbP9CZ/J6FeABW2QTSRAiXbtWEgQA2vQpwfCEUxb3T+JFXVCDJrPCUA5AJEADpGxMEEiQsRtkIkFWqYAAS5GBIwZDbW09DxYqQ6GTd01sAIDEpwloqJNSK2eD/6L4sWukTNgKxAu1KUs0LZgyABN1tB8ptM/mJVxuNxsDUQ7RCJ9z6btR9/JceE5huZN+uJSH6bGRHxDJUU6yKoMRhudGQLF5ILkZQKaucZVL5GNcKDpIZaQFgggMbIOUiOR5WERA2qExJrBgxQaz6x4hNwIMsarGRrX74v8knIeGQwTMRA778m2bbV8JmJxImQhfawF35ZMBiwfvXfCk0/G0qXjMGwEZtnDn2Yp0BkEyV+IZhe3hVAiJoJ/ajBLQRganRMNUFJhY9rpIeNU94MWI7qJNxtd2w/n5yvwDTYrskrV2iCc4UAC1WlGW00qLFihDYXjZGvFij2nZDO3Gi2nUolGHL5ReK1ZKlYcK1cRxCFrZ3nlAsSHLIIsbKMoiV2VEHLXbl/KCR3+FvU/GadgD6icyTaa9wL2qFUQaqayyzeIYLwDLdIva7NGKxHwnBRoYR0XLvuCg2q3OTyGZRk0AcT9PA0XR1G/nU1X83UwBc7Qy43kA91bf69m6ABcbg+sVRW3ghYVrtMxK9TwXJYkHxgrAT9c1+Dw5hDGQ8MeZHf+5Ryw/xmjrAZo6R6LhpByD8F2YeF/n671ut8hEagHMh9Le79GGfrbDOW76FRKITXe29UIoDeATqHM9iOyUUXtTp67epmrDtBmC4XlwvSR0egFIagoTQy3C1uVrrfeRpTapOQUyffqPJtaoHDSESiRzJB7H5+//VafzmpoTAqxw87QBkgmiXhmk/+7s2q1hYlqr4C1d799qY++gvXSaIzKYuVavMl8VkZi10PZvhAVf73O1+P+gyD+q6Xv1tq3SZ4lNNuOp3IbKJ6dxbnXafUlkZSTsA/cZpFBhaWVK9tKlBOCsrlKzg/T74H7+ygqxou2/GWsffbgu41rlt5WeBFzRPJUOBWCHWUyEO+fIDKdIVC3bfkXRfLEIqRtoBiOT9wLNVlnxQO23QRh8GZn1sWLGFLujcW75klYoLSvdn7FQAhnmj69ir/9Zi94sNWYCQQZHg2uUhi9VvXGI/8Wz4ky29ph2AqF4QnNLLjw6mPBqBYdsrpTK5JgB+8fc+y363dCUZ+uOdDkAEwqckEsFjWTYsLSUjqGS8SER7R9T+JBUj7QC07PfXTQbA0FiRE0dwekddDbigbz4dMhohFReU7s/Y6QBEsHr0dK0BkK2xEN8MsuGRQfWXEVtxPpoNp2Ku0w7AfaJGyH6xgEHAyYkjpPzugoSPAuDtb9XTWLXYx2HsdABCeiPbxwI+92K9Sce4L77jg6geAfC9P3ZaaS4V9yttAAz0y4FjEffLP7Rbqcc/KsGrLehocOH9XgNgn5r5TGi/R0qGiNVArpLFMUKZLRWfv10ADHxqvkKycF2WtK1Tu97oNVNdaZDcDAC+ILUPvWaMjkFFJKkZ/aff/c8Hpj+khLpVoWraAEjBnB1nZFNnf9dq9AvcFRPJSSN4RK5EVgX4UtVUKPBkxWXqkyJeEBnUhIQG1HxTMbYLgLagRUJT+6YzF88sYYfcHN231tZPbOiyjTbT5xtt9h/QZtVRub6v2cfSMdZTRqXUrYy0ARBi2Ov0qqV+Ea+kZuKk+oCP7gDQL0Zs6pVmPXCCmx4CNVaBfn22E077HujpUqbN55ThukVwA8JUjO0CoC1o6sIqwdEPkFox7dXohM+Dr1Eyp6Liwz3ikbR4rjd+Dx1TY3VhBL7cu3vG23ab4RhVmZOdeVsZaQMgKovapmKtpBpTKu+RysKLD/xGaBNsviXBporoG6n9xl1s1OVyvBodDykTe0xocoTamRrpd5+xq25jJb6440Tf2C4AmmpF5TIaJB09VWubomi+zpaFB6qfsztumk4KWsxbGSF86Tha6X7x76pc6f6xqxDVOpUr+gt+9na3QifKfrNS4mQpABFXNu/zpR2k66G047Mpz/99JJ3ZPW2mMReywXnD1dLtCemS33gutYh6uiAtbxfZjZyJJwkB8K/eG1APlNTQBtsFQCP0tReFSsWpXzTac0PoL4NaBbEATTFpcmTdFCTupQy5mXkFvICQlsgvWe2+xndSkEJ7uXSqrlqETp236Kq1tU60abOAyIcOSnhAMHvkRFToqCtD5MjeC7KpT/6v1/o5s2tso8M6g1ZIhCDagE3WbKxp0IafGsnckROhpkaUwGadnQPAMtvO8DM1b2LPs2WmAtuYNnLZc+O0mYvk7oH6ZI/ouXGm5t5kiEYXhTO/ajT2giZN9B0EgDzVHak+APxBUv1khcOr3d+0AdDkV9p2CQCJ/2DVccFo//yWxRH3+dtePrTaycW+z6pEqUvNkkyN4jmt1NgeyeZ2npJkz/8Vc08cg0izr9t30/rqfb/Tf6tZG+fAc0qw7Ag4T2pfbUvHyk1JNKjUttLvR90nf+2xvtUzE16ZHXs9G/0ej9KyX8eVS7TjSjLFXhriMsS3bDNg+ygls7uy+tbGQ+UytjoEpbdZxCQPzII+/WaDlDE1ijnVVUv7RwCgNTPSTj8KCJfPadum9iZvZaQNgFRATrymCogugG5XyMoZ1gJCE4UFtAqIVmwyw4JjydaJK+GpeGIQkiGIUh5EzQotDp1AhZS5GSyDyG5ae6iTKjIi3wl0E+ZWJ+gXgDP18MHnI7Yr7tCxGmtqxMLiiwHI0R123h53F8/3mXqE5/rSTmOzg4+OqNvDniP0dqlxz/683nroRA9pmT4W3yvAeciimrZrdyFCD9p5oAAnPoQRSBaELVREzqoiIv6W8Ik4kDEB0O9PGgAvvNuvpptZCkC7gNc9AFs76HjlLwCVcuctPUZKK+iSVhC7+1cbTDDycKMeZPWqkAxh8VRbBoB12kVWUaUAWZQPNEUAAZ8XxA7dmqyremQVlgEVB7HRpobORYew/oEU7El0mtuxDH4/bfhMLBIgJMy49f2ItZUjAeIp55seOi4W0B7HoHJmxxG11JCgN/Z6+WwsVAAix7+rx1Zw3SRi9kBGnQNZazK8KJk27fIwIHtXCIj7Oz0AP3/bC4g3fV36w7RZQAPgG/Vmwlv2+g73nCgC1JvfRAWoa8QQgC9PrpTgG+Uv7STaBDo2dWP5yHIhtuEWV4KP44TWGiiuB3XMoJUDmJsZOh2dkDqPWr89/5gs2vQC/lggYGEAAtYo9HHhkWHrbS9d75yM1pLamw4SPNa1VO09Eg2/ALyGj5Zv1l1LQgJc5X0BEsEvG7CMd13DGYR9IljA2CbxzGd/lwAoD5bVAKSofTIBAEkMrl6Mqiq+VhuwFaoK+DzI0FIIV1m9Wu3SAsx0+qQ4jtVDgs6NDyMWAOE9XgECFA8MPgE74OMGbWYYAPWHJgRVnGm9XbRKbKHwT8zguAARS8geZDg64rStDDomsOC4bns2HOZ4lRGOzyKkryChCJQNz43rEW2DkgUSm4QQIHKeYd9y+Egk/yjMAeCxF3aJ3iq3HwUAUkIFgGwB2MpImwVcC4A/RAF4cwUAuY90HqhpUFNwZbfsU/DPzPWd6bE+NBmyGyDrmMzgZgC62KedJ/N3K38nHM1XWrC6/IYH4Mrf5f8A0IBgx/bHT/R7yb7H3BAHB2u/AvNxH8PxdQbRBeifHYf8DQ9EskIHCvbf0DSdnW4re0MvA1Au+NiZFQDsVuuUqAV8vAEY2whRE8ykVtYWuuYOnvxTYQ9daZbVq9mljp5kt9E4b73Jj7sbT/gbgJFFuCBrDGXTpxjunrhDKKoeiUvZuMUuwdixswH4lVywTHhsJ05AhXWh1LTnaIW16t1/VI8Y0FbEkOHianPgi4VJ8t+bJ1A4Mil6aqhv2pomXdc+j0650MFObd5akaUDwL2qhkDDHDujrHtHueDVACgQGrcnvouWEWSaKKjh94j7rMefNmPj/laL+xLeEtzhZtjuhB+2sUXgXSEfZD4x4Scm96YmR2OjC9DCDwGPZ5aExIg4nKTknspqKJFGen1LktjzWA+AloS8oyw4hTHg/wMAAP//3YPQ+AAAIJJJREFU7Z2Hd1zXccYHvWPRQTR2UsWWKFGiJatSckvs48RJjv9J5yQ5dpz4uKmQliOJFCVaoimJvaD33oF8v3l7gRWEBRaLXWBJ7OMBH8ruu+27U76ZuVvQ09OzevfvM/bevw8b991c7ccq7ezbTfbEc3XWdqTaaupK/XFDvbP25ZUR+/rTMbtxdcJG+ufXmikoMCsuLbTyqiKrqS+xhkOl1tJVYZ0nqq21s9LqW8qtqqbESkoKrbCwwAp4w3bXqtnq6qr5P32/24s2Q7PJ2qe9cPFt9OP678LfdnaP2qXtZO2G5yW2v7S0YnMzSzY+Mm8D3TPWe2/Gum9N21DPnE2MLNrs5LItzq/Y8tI3+1fXXGpHn6qx01q/Z15utBbNP9f05KIN9kzbV1q/j/4waN03p0Ozad2PPl1p53/ZaNwLMgnANgHwhU0AODIwZzc/H3MAXr885hOxWc9LygqsoqbI6lvLrP1YlR06XGnNHRXW2FpusYYyq6wqtmKAWFS4BojE50QLv2qLC8s2M7Vo87Oa6IVVW1n+5kQnvmfL7+NYLy0rsqraYiuvUPvFtP/tTQAAlhZXbH5u2dudm1n2n7d8frI/xh/PWMsri7zdsooib3uzt9D2ysqqA4qxT40v2nD/rEAza30PZqz/Pl8R+Jbmk89Hg+b91JmYA/DJF+qtqa3Cm/sGAH8vAArMu7myC8C3muz083XWniABJ0YX7OGtSfv6szH79P1h69OO3OwqLDQrKimw0nJNOhKxocQaD5UZwD7+VMwlYnVtqf89USqFZ4VFGB+Zs+67kzbUO2eTY4u2MLcSXrKju0seSd26plI7cqrGF6SqptRKJLETJVIAPgs1pIUf0sIPdM/a9MTijtoLLw7StjpW4lKoub3CmlorrEIbMLFdXr8OvhWbmV6yseF56707bbevTfg8T0riTU8s2bw2BJtxVUClv5tdrdI8z7zS4AA88kStxl3mL3MAdksCav0+ymkAHq20595sdBXccbzGausjFTylheh/OOMS8NIfB6z7dgo7SFKgtLxQICzWIpTb0Sdrrf1olYMg1ljmi4FkQhoVOlJME7xis9OL1nd/2q5/OmI9WoipsSUBcHmz+d72dw5ybYpGSYYT341Zl0B4qKvKarQJHAhxSQXwkX5DfbN26+/j9vDmpPU/SB+AdIwh1TaUWufJajt8usaOno5ZfRwQ+qteIYknyb60iLSP1O3o4Lwk35wAOGP3rk/acN+8LcxK1S4mQdyGGXANdj4uQI6um1BT4wtav2kXIJf+KAl4e3MBsuFxSX/MmgRsPVxhz77a6DvosBYr1hgtVCTCBUDfQQNaoBQAqO4DruLSAldDlTXF1tRebp2nK63jeLVL2DoBsUzSErUIIGYEPlTP7b9P2NWLQ9ZzZ8ZBmbYK1kIDhJr6Yms7XikQ1tp3zzW5JC5IsEcB3+zMot37etIuvzNgd7+ctBlJHeys3VzYxIe0qU88E7NnZZNhEzNOl7gC/fzckk0KHH0PpmXiTDjwJocXfdMx50h+xr6aYjfaNcZzP2x2AdKqjVYdK3UJOzm2oLmMAHjlvSFvZzfjyhoAG9vKpX6xIfR1pl7qs9wnbFY7FGAAwL/+b789uDG18/4LCNV1AKHC2rQo7dqhLbIPkQpMVHllsRveLMbXV8ftk3cGrVc7NZm62UkHKmuLrKkT+6jOXvpBq3VKurM5XArqQQuyu1jwm38bswu/6bU72gDLbnvupJVvv5bxth6pcLvsxbdarU02MVJvYZ72luRQSOJJ6nYLHLe+mLCBh3M2JwdjSW2nc3WerLKXftLiAqS5vdKdP1Q8Nvzta+Nav3G7fmnUBrvn0nn82nuyBkB2bNuxCh/A2TdbXGWySHhkY1IPAPAvv+21+19PpQUMl4ayDZGGOAV4y0efrrEOOSzNbZX+TLy+m38DgNqpkoCZuCrlGDW0l/nGeumHh6zrxAYAOiAiAL7/6x4BcNLVXqqSJ1kf1wCoDf3im63ukGFiAIiHd6Z8fP33Z21EqnZKti6OD55tOu0i6btOVdv3/7HV168Rm7O62CVg771p++wvg3ZD6/fw5ox70sn6nMrvswbAimo82FIfwCv/0OY2EwBc1AJhR9yQZGKB7so+cdWQ3ka1grizUtci5+AJqePjVdbaUel0zsQIDs+UXf9obNc7NUwmnnljW+QhvvwjAfDk5gC8cXUsGh8ATBMIoU3uVTFJwMOyf7XJnj7XKFqrxEYH5t2efnh7Sp7trA33zLu6d0mf7nwKfFBcR56sttf/qU3aq05mR5k7e0hAbNoP/9DnAmS4V+1Jyu7myhoAy0QZxBpL7JR4pNd+1iZw1PrAVpZXHIQ3Px+3d/6j227pvig6AHWS1qUJY8fipLg0lLeI9C2rEDJ1IQ367s66LZTW8ze8ab8AWCkp3yzVj6TH7ABk2M/D4vPwbGenluVkSOXC56U5lQw12NrYuG//W4edfLbObWvoLhys+7Jt//q7XpeAo4MLNjedowAsKYsAcfLZmJ3/Rbsde7rWitxBMB/I3esTLiEQ5VPjeKcpWscbALHxR6duBL5StU8fkD7T7v1m5vn7BUDf0E3aXKKjUMfMV5883ImRJVvJgIQN88icVcnOhQM8/4sOrVvMQQngmUvW7cJvelyDTYtjXNilc5U1CYgYBwzspB/8stNOCYhweoAQUQ79cumdfhflA1IfgDATFyrZ6Ri1D5fIxC2Jekjf+/1mr/YLgIwJcJSICYCURhohfaCbGONupF7iCNEizR3YuHKyZGJA/WA6oaEgtrGp//Srh3ZLd59X9WM3V9YAGDp1TDbLWxLlDKiqtkSSqcj/BDl77dKw84F3rk26PRPek8v3/QLgXs1JDKJdtjQBhGe/L5qpKwrBBV4V5/HPv+p2cjsTfco6APGmXvlZgjclBp9rdGje7lyXO6+Y4rUPR0UbzGZiPFl/xuMOQPjVp16scwCefKbOGhR/55qbFcGtyArrdVH00r2v0qDPNlmdrAPwkLir595QREQ7qlOURa08Ki5ilP3i6QjpXPrToPWkEhHZZAB7/avHHYA4OC+81ewaixh8SCKB5O69N+Um0yd/joj9TMx91gFIUPvkmSir4qkXGteC2iQHsKMA4MVfs6MmMzGerD/jcQfg4dPV9trPRb/IZKpvLnNSn0n14MHVUZeAX10ZNyiYTFxZB2A1/JWkIAN68e1WJ4oxaglZQUpDx7z3n6JjFDCHtd+xsxCnYTDMMdKhZLBX8Nh2EnpKdTJzBYBOl8jJw9Ej/IhTQpIBjkE6V3je8e/U2vl/aTfULwkPpMfhNJLU8MmFAQdg751ZmxxNL7liY9+yDkD4OUBI6OqNfxYd85T4QHl0eG54Vve+nLCLv43cegZFwHwnlxPRxQUGTwbxjfdNntuMwlM7Cb6n2mYuAJBNVqJ5hZwmCsTYoWUGH4gTTJNNYJ2qRO/AVrzx83blAm6gzRTTvvibbqngcQdfpmizrAPQ6QPt0uOiY87/K8RmLMqlk8QKO+vye9pZUsXsLIjjnVxFAl+peD+iE0QJ2LXjwws+SfB/xJ7JyyMZwBMvBfrd0BZ7DUDAFqQToINFgGQHdKSGVSsiUq6o08TQoqRTXDWmIQSjSEukqb6nGDf2n9MvSmjFXEJTvYum+iIKHOxYUyVZ1KwDkAkkW+QwscWfyhuWJCSzGaBwjShl6OYXY55h++UWCapJ+u8RkKpYkR1+ssbOvtHsMdJ5SVHCfcRJh/v0pSzs0YEFB+bc9M6yQja2u9cAZIOVCHBoEcKN9S1lnpTboHt9c7lnB6F+H96Ytg9/3+/RkXQ2GLmWpzx5pE4ZMOsJqJ5Njfer0OkHit3j/W6VR7hxvrb7OesADB3wBMdX4wmOpxMSHMkPVILjDYn2y8paIcPWbbcUd3FZpfIECflJsr76U8WcFZvl/bMkPQzNOQhJRgWIa4F6EbhzAimhK+xFIgnOp6bQZtYAyEZNlHayZ0kvIwkA1Qg/B0galBFOVjjpZ3ioxQIoiQcQxEiou4o9A0AHYZj8Le6hTfL/zr7Z5KZS25F175dUfuLpaKjPLiRPIN6iiS3/tGcArBVIuk5VuTNy5tVmT7H35IR4+hIx4Q/+h/SlSYn8b9coJBsFAOTZhI5e/Wm7HVHCZiJzj/rgi0RYUpbgH5G6gNLrIpQzF4z3VCRHtgAYIjioVwCHem1SSlujUuFJZSOfslpEfkUVce4iKy1V7qMcBGLrmBkkPwBA5o8MmFQB6BJWqv2Y6j/YwOQbkn2NqsdEInn48w+HXL3f+3LKxocWki1FWr/fMwBSz1DXXCJKJmZkx5DZS1iOa1l2xoMbk/bxn/rthnYyLj7B9VSudQDGkx4kXYvIz5PaZwIJUXEjT4/akAklVEYAVKq8cubGlFFCGNBtRQEV4xpbkaD+arAXEzqSEQAi6eIhQ0BUJgAQ62WOqrT4JHFAXzUp/R7woWoBH6AICbehS17zovzDrwGgkjt2CsAKpbRRd4Nt/tKPWmUq1Xioj0RrnETWhewXAD7av5DyuoT+bXffMwAWyxFh5+LmwzOd+E7M7UBoBGwK0sdvyRbEy/rqk3GXUNt1nr9vBUB/f4RBpykAOiqXJM5Z1UxAhpPhCx85IiCS0EmK05gM+iiLWapZQEy8dg3AuKoln5H5ILmgSfmFAI2oAyUGlC8QtqTwCmA68OS04eHzlXjtFoANUusnz9S66sX2a5bUZfNCY2H/UU8CS3FbSa7EntOleRL7nPj9ngEwqJjOE1X2vR8p01bOCJVWlSqzRFJRyzDUGyWQYguSapRKEkGiDfjaz0QfPEF+XrRYiQNN/J72sBMXSZ8XEGH5sRfdYdFGYKfjSVNDMqd+uVQUcOlPeVWhNSlYv5YRvSEhlXxHMqJvqPLvQjzfcVl5FthaFDBBdwAqgv6oOpyKZtW5oG6RdNh1ldWRtHNJ7oD9JugSxxLacwkYbMAUVDBARiiQP/m8aneQgJ56L+BjwrAeI8pcJ2/zwz9Emetum++MJUvs6qbf7xkAEeksQpN2evC2ACFGNQP2WgqB4a54Qbw5dh6UzHZ8ExQMUoQJfJ28Q3nDxZRqaoJ5brLLQajJRCrSNlIRWxFAAiCKevpVxjiofDtU9oRsRaQiZHdzVwTAc+dFrKsmhcUMbblEkqqHtrj430q4FX+2IgDyPmxVB5zirUG1UmIKBQIrgKQrkW2HXRaeucUQfONiLkxPLLgKfu+/1F6KTgjpaqh7kkVe+kmr87OVcnhon7lh/LeUek+6HOWzg0oewZTJVNZNWJe9A2C8xRAZATDPv94svqnaC80BDHRCHynfHwz5wPGIIZW3ulhY1GKXQkgvyIvDtkSCoN6YTLxEX0w9f6uLyWXil+MJs9iKZOzgrIzIg2ZBMMDh5BqlMmnnqbMN1qJ6CcAXgEIh+LwC9w9vTtmVi6pFUQRhReYsUg+iHOBRWom6raO+WX3FDoykXfI++uJr9XEwljVPS7Jp4TfZLBOS1tSeoDkovkoFKCTtcngAkvy515u8ZMIDBHo+G5LU+7/9Vesgm7xH9TSZinxsXIM9ByCAqZL6oer+nFQxkZEaFRKRK8jEedXV3cjtv/Lu9lVXTBp2ZL04sq4nqjzURwoRkjUUsKP6gsPDBARptXEyaB8QYpNiK87FPWhsIXhFPGg2CTYadbJNhyq8WCfxefwd4x2Pu0e1GgAZ6c+GoD84E2UqaodiCf3CIUl8xrf7FZHn9A1wADzmifgsG4RMIuqru0ONBpJqm+uQqhbPvB5VLXaKuoqp7JM+eJGTbGM00cd/VlWfSiZS0UTbNJf0z3sOQKQRKoYSwzOvNTp9QlVbqBuOqrwWnXH/v9/1+84ONMmmo9DiIn2wBWPKGG6QhKFCrlHgIJgOfRHZVagXxYtL1lUcbwySa7NnJwJyzhd93sHFqQjlAlRZebGPZSN4AEoYByqZRkrVdrDtNr5+87Zlp0oaQbMgVVG1pEQh8SZV64JEHnSSPTIRxuU4pZL5HZxBTJWXVfWGM0jNBxuEC2BTS43k++xClPVCLTEbKxvXngOQBWcBoBo6pTYp2wyJj/yegbLLu1Voc+X9QSdYvbB7qxinnokK4zgPJCmTGQhcVB41rs2yu+oaIjqjQmWbJbK3kJ6hP8kmFxBi+CDV6Bc/05ZLXmy/JKodgx3ghIVj4yU7yiO0DXDDFdrDLqXGeWIUL33ObTEKkKjHmFW8GxJ6jTpKIfOb2DFODybQ2TebVVYqE0imiqtfte+Jwh8rUVi2H7zfmCJIrhXWuxa6mJH7ngMw9BrOC4l1TLTMOcUeIZA9+yIeI4YOuXltzG7KCyPGydkmUAOplhmiliOpWOrSFi+T6EFM6hPv02kOmQLUEGP8o6IdS0IkoNzLC9yh9t3+jNNEeKHQROGLiAQqd1gqd1D8JR66S6bU6FJtFG0caR7mAS4W4v4UCacJTiBgvy/e7/K7A067jOrgqNldFh1tN4/7BsBIYhW6dMIIPikGPqrAL/E+MxmcI3Nbx1t8/Md+7cZJn4xUC60D7YPNGR3qI5sL+1MSoFZqmeSFtiOVTvbWNerULZwBuLa4VKQTqajK7SZ4q78HiQcAUdU4L6jAEalXJBHHanB6GJk9cHAcK0L4kEiRS2Op6AShuVVTcnQKtMEVMxdNde4HLXZcRWJwjmxALlT7IHXUSjb49P0hP/WKgiM2fTavfQNgGBS0xIlnaqQSlAaunEE8RICAFEKNcZzY1b/gjY25h8cBO2mpBFf9UfkmVWUQsDgrRBuwFbFB4SShIvhyqYiqRSxmSCpGYIl7sth2Uuk4Oiw+hxfx5aQ49p1OHOAkqzGpWg9NkueXJhaYS/d6xfmhes+80mhtOlsnOGbL6seQ1DunlsH78UXcfC+ufQcgxCyTQ/4ZO/OojONQvATQCMlFR7qN6zy6iBBN2yjWQrgtJmlAu+x+l44yB+DoGmUncqZNh5wijvnA2XD7SCBEooZrp5IxUdK5lyzbMALegg0qU4fjSfBkoVPgGgEcjpfbd5JCuyGAAR92ahdHbfy41WkXHDU2GeOAzmEDkJGO6iWUB+eJBtqLa98BGCaI2pEzr+k0JtkmkLucBsUEITVYNDIyLhErVkySJALOQ3GJkqZUCJMbbKNKkcGRVKxwTgyezqWhpCJqG8cFB8fVtBbUJWN4yGZ3F1gRpYNDgVcMyc2xaTgPJEdA7WDb3hcAfUzULwt8O0km2Kzp8DvmFrsaigoNAwCjGLz673Mrukgqn8OG0DAc4tR7b3ZXgA9tp3rfdwDSUSYKVp6j1yBGX1RRjEcY3B6LQAjbT2YGTsnldzkWLJ62JTtoVxcSQl8AK4TJABtHi+BJA8oOSQ/SyRpbKpzHQypiw4YrSMQg6fz3AFA7hHAfJ1eNiUPsEb0xoKPaUK9IO+w6JDwOBxIncioizi88O907Y0LytcU3Nk4HpH/Y2OxeJCvH1l25oLNetLH7BD6cnkxs7FT7nRMApLPOT0kVdqkQ+uz5Zi9oD4fi8Hcma1Hn3z1QhOGyCNJbOoIMWoLFy8aEuRetMF+dbNSOE5VuL5KHxwJyTDCSBfUdIi5IRACHXYe0Q31CYONAYNuR7NALALWJOMMFL5YjSRhXpi/AFzYPzsbzbzR5gTmpXHChXEhjQoyEPD8VADED2AwQ8Ht55QwAXRVKqtTIGYClRxLCU2EscwEyqArUFvaSn3olnpByTlRcqvRMqpMbvGhipixmABvnAzbIg+a4YJeKOjkqJn4RpwXSGHtq7WRUgQ1jfjx+Th+gnBco55XyhTfPeHzzpNqpFF4XJB/c5wvayDgdOHYcWxdizDymTw7OZwoVQjj3SgUT8vRCLvVpL6+cAWAYNJKQI3k5BfVlBcmPw9Sr7gH7iwuwkQHisdb3Bv0ASqQLkiZt5yQ0vsU9WlgkSxTTpYC7VWf0EXGB4Ca0Bo+HtBvsI4mBfMNZJ3IndX6LJ1VkcW2RwACsQtxmvQ4YJ+2N+l40CqR7kRI0uJDOqFlixx+J3iLUxtwRadmPK+cAGCQhB1yye7FdwgGXTBASA6dkRgtNHJTDcsjYfajEBY4Ky+ZEAkIWmeIgj7Zoo5S7KubA8iivEe4MswD1G6IUaZWb7hANqFY2R4fS3Z7RkRpkOEMx4UABzmCnwiiQfY7kI9OFbJ9sbtzthpFzAAwdJl/OK91Ey3xXR9JS60EFGJKGK6IzouyZzz8c9h0dffSAjHupukwnToZ+hbtLRP1XqO5gL/oCa3cQv02WTR3em8l7iO16Yqs2LaeQPftKk5wPeL51bz1IPjKMrn084skGSGiOdkuXX8zEOHIWgEweUoZCHDJnjutgcIhqHIFAz2D0k0rPrsabuy0WH2OaWGmmTtvaapIBYZTnGA/fYafqV9mw7ZL1I8R2UbXUc8AeMEfYrcyT91FvDpKP43tRv5gIWyZ5JGsww7/PWQCGcQZJ6Pl3+rwKjgsjwwUSOQJilCgwKhBCplLD0H1rxtUz9hj0RiqZ1aG9XL+7rYedLA8c8BHLxeHgEKhjspv5OYprR145hDeUD2dHf3ll1A+YRPJBeGfaAUpn7nIegEESQn9wOigZvHxyDx9cw0QHEEaZwVEoi7ASPCE7Pcqk2T6zOp3J24/3eDxbpHlLZzQXHeL2cIhItPAIkkwU5gR0QfEw/i8+GnZnje8J9eWC5Atzl/MADB11I1t2Iae3P6eICSG7mMJlRCtCdAKVjBMAVcNkc5o7LD9UCOdF4xzgjbIwubD7w9i2uoMlEiQgyVGrxKypmPMP7JGne0jxbPIdYQkAntvG4iKJuCD50ApXPxh20wSN4CeaZtEb32osm/3tkQFgoBmIGxOvJaHSP4dOPGGIHTNAwAUZTGE6aeQU1sB5oYIe6ER+sksAYbazPDab7HR+5xpA4KN0kogMnwJwSA4Gdh6cKYS4f3ZePDITipRI4ohy+iY1fh0mpA2Ic5QN4judcYX3PDIADB0OaUVwcBQ1kV7UKnVEahFOC9KQC2mINGDX8wGJOCn3dawExTUAM4S/AGMu2YhIOzxbTyPTeLCB2XQQ39S9kELG53aQ2h+ljuEJRXUcpOqjYknl4jBxDpPEIduPCId3KoX/HjkAhuQBdn6tquGIlJBV3aWE1hbnvaKyQsYehcaiTxGCbJ1UfiGJriwQnyHCnYxfP5VLQMyFC1XLyQikiGHnUV7Qoo+dQO1WU7IpQFIOwEZzWy8+zhlFYAbk2eKEUVtNdIMIDPHm/YhwpDqXjxwAw8CwjQi2N6jSDNYfSYh6ItWI5NIgDZESANEzjqWCyEJBInqkQgBEJU+o2s2jAYqDRoXr0R3HhsXLJK0S+o1q9RoV6lQU7gvfE8mITkZQbYsA6B9OqPppJB6SkTG7rYep4RV4SmbQ5iKu260iKGy+O4rvjqi2+VGwdR9ZAAJEFtMlhhaHxFZSujhWDE6MKEA444QFcxDK+PZkAamqUPEGj0hoikxkitH5InMFVUYZJuorqOjdOi70123ZeHYynj2UUh3FU6qY42fCjqhcEh7YROHLj+SQdRHG4l4/ced4PiFeP5VxhCX94xMk0Xfb37DZs3l/pAGYODHEj4mBkiCAOsZWoiAJr5FwGckCSEMAEC5AiYQjFR7JOC5DfQ2AAiEfKeYfbwqXqOQB4tBEOngfR3aQapXMqKcdpBqSDrKan/nyyEWcwwN8ePKUeIYjOZB0hNQSVSz9xZ6lLbxYwnyYE0i9XjlY2HteqLQHNRxh7jJ1f2wA6CqNzBWBDSniNR8q/cRGBIx1TdFZehsX1lVzXJ2hfpEsroYlJQGmn5SgijzCe9RtLCo1nthpBAIR3XqdlLSvh5Tj2roQMkSSsTHoG+0ixSCQkcxQKrwG+oTNgRr21+h1vH7jRsGDJZMG6Qzo+uRU9ahmhJQ0bFiSXAHno+Ldh4l6bAAYBsTCsYDUfXjKlCibdmgLSUNiyVA2YfGRUImeZHgGd5dykjoUAmFjEVEhHxFJCBjmxLPxAdgAcF3XJQBQ6hMAUghEfyDNHYB4tuoDwKOvbhPyX8LlbWtTsBF4vmdSqw8UiAM4Ti2AWiKxFfDtZzJBQrfT+vaxA2BY0BCkBwAUGwGGOqnoZhn2HSrOaZZhD4HLkRkREL4JAmYzAAGpEuUcrqtgfoc9mVQFQ6eggnXHc8d2Iw0ewNM37ujmDdhbAz7RCuxSojo9OikCsOHBh/Ovw3Fynlcok+BRsPc2Q+hjB8CNg2SBWWxUX3QUWnkEQDkp2IcuEaW2+TtSKbLbgmSMgMMzNwJlYzup/hyAArj5HgCvHRsnaYeknRX4cCSwSZ3DFKXCnWIh6nR5T6YTcFPtf6Zf99gDkAkDPG6HSSJhd2Hkh4o4uMSmDg4M0hFpSi6lZrhSqeuA0YP6SDC9PxGASLOdXIAtXHy7BjwlsKLikWZeeC5ph8TjEzDh8Pg9gEMF8zqnhQAfj1t/ZHj0I3k/EADcbGXcVpQq5LQuPyBSuXScV8ghPRXiEQEoYCXyAniRjPy8ZjfKfkvlwsnBg3V7zr1pOQoyG5fi9h22JABbA6CSbDkhFmooWzUjqfR7r15zYAEYSbXIHuOMQfdI5SAEFczPpDvhxZZWqFZF9iLHWtR64H+dXtlyoSSlohKCVbfnIL9xJBblyBChcCdG6jaoYBwOQoMhhSyTBPiW/dzHPx5YAG435wCRqES5Tt2C7IbaAYCEw/gZqZjK5XyhAIe3ygmwgA7HYW5G9SOScp6dksqDHtPX5AGYZGEDnVMooHF+H4B0J4UYrNLw1+zAZDgMNpoMNk/Tl8ccSTZ5ziKzAaZHWKSeD/KVB+BBXv0cGHsegDmwCAe5C3kAHuTVz4Gx5wGYA4twkLuQB+BBXv0cGHsegDmwCAe5C3kAHuTVz4Gx5wGYA4twkLuQB+BBXv0cGHsegDmwCAe5C3kAHuTVz4Gx5wGYA4twkLuQB+BBXv0cGHsegDmwCAe5C3kAHuTVz4Gx5wGYA4twkLvwLQD23Z23z94fV+Hz3nxW2EGe/PzYTZ9kWmbPvRnze0FPT8/q3PSKjqTQqUqqVchf+RnI9gxQDlvXzAkSyjQHgNluMP/8/Awkm4E8AJPNTP73ezIDeQDuyTTnG0k2A/8P8RQsArrtid0AAAAASUVORK5CYII=;" parent="1" vertex="1">
                    <mxGeometry x="400" y="-360" width="90" height="90" as="geometry"/>
                </mxCell>
                <mxCell id="66" value="" style="group" parent="1" vertex="1" connectable="0">
                    <mxGeometry x="-560" y="-800" width="918" height="640" as="geometry"/>
                </mxCell>
                <mxCell id="32" value="&lt;span style=&quot;color: rgb(255, 255, 255); text-align: center;&quot;&gt;us-east-1&lt;/span&gt;" style="points=[[0,0],[0.25,0],[0.5,0],[0.75,0],[1,0],[1,0.25],[1,0.5],[1,0.75],[1,1],[0.75,1],[0.5,1],[0.25,1],[0,1],[0,0.75],[0,0.5],[0,0.25]];outlineConnect=0;html=1;whiteSpace=wrap;fontSize=12;fontStyle=0;container=1;pointerEvents=0;collapsible=0;recursiveResize=0;shape=mxgraph.aws4.group;grIcon=mxgraph.aws4.group_region;strokeColor=#3A5431;fillColor=#6d8764;verticalAlign=top;align=left;spacingLeft=30;fontColor=#ffffff;dashed=1;" parent="66" vertex="1">
                    <mxGeometry width="918" height="640" as="geometry"/>
                </mxCell>
                <mxCell id="36" value="dev-01" style="points=[[0,0],[0.25,0],[0.5,0],[0.75,0],[1,0],[1,0.25],[1,0.5],[1,0.75],[1,1],[0.75,1],[0.5,1],[0.25,1],[0,1],[0,0.75],[0,0.5],[0,0.25]];outlineConnect=0;gradientColor=none;html=1;whiteSpace=wrap;fontSize=12;fontStyle=0;container=1;pointerEvents=0;collapsible=0;recursiveResize=0;shape=mxgraph.aws4.group;grIcon=mxgraph.aws4.group_aws_cloud;strokeColor=#232F3E;fillColor=none;verticalAlign=top;align=left;spacingLeft=30;fontColor=#232F3E;dashed=0;" parent="32" vertex="1">
                    <mxGeometry x="20" y="175" width="280" height="140" as="geometry"/>
                </mxCell>
                <mxCell id="37" value="&lt;b style=&quot;&quot;&gt;&lt;font&gt;spoke-dev01-useast1-vpc01&lt;/font&gt;&lt;/b&gt;" style="points=[[0,0],[0.25,0],[0.5,0],[0.75,0],[1,0],[1,0.25],[1,0.5],[1,0.75],[1,1],[0.75,1],[0.5,1],[0.25,1],[0,1],[0,0.75],[0,0.5],[0,0.25]];outlineConnect=0;html=1;whiteSpace=wrap;fontSize=12;fontStyle=0;container=1;pointerEvents=0;collapsible=0;recursiveResize=0;shape=mxgraph.aws4.group;grIcon=mxgraph.aws4.group_vpc;strokeColor=#0e8088;fillColor=#b0e3e6;verticalAlign=top;align=left;spacingLeft=30;dashed=0;fontColor=#0d8088;" parent="36" vertex="1">
                    <mxGeometry x="25" y="30" width="230" height="90" as="geometry"/>
                </mxCell>
                <mxCell id="38" value="10.110.0.0/16" style="text;html=1;align=left;verticalAlign=middle;resizable=0;points=[];autosize=1;strokeColor=none;fillColor=none;fontColor=#0d8088;fontStyle=1" parent="37" vertex="1">
                    <mxGeometry x="30" y="35" width="100" height="30" as="geometry"/>
                </mxCell>
                <mxCell id="43" value="prd-01" style="points=[[0,0],[0.25,0],[0.5,0],[0.75,0],[1,0],[1,0.25],[1,0.5],[1,0.75],[1,1],[0.75,1],[0.5,1],[0.25,1],[0,1],[0,0.75],[0,0.5],[0,0.25]];outlineConnect=0;gradientColor=none;html=1;whiteSpace=wrap;fontSize=12;fontStyle=0;container=1;pointerEvents=0;collapsible=0;recursiveResize=0;shape=mxgraph.aws4.group;grIcon=mxgraph.aws4.group_aws_cloud;strokeColor=#232F3E;fillColor=none;verticalAlign=top;align=left;spacingLeft=30;fontColor=#232F3E;dashed=0;" parent="32" vertex="1">
                    <mxGeometry x="20" y="480" width="280" height="140" as="geometry"/>
                </mxCell>
                <mxCell id="44" value="&lt;b style=&quot;&quot;&gt;&lt;font&gt;spoke-prd01-useast1-vpc01&lt;/font&gt;&lt;/b&gt;" style="points=[[0,0],[0.25,0],[0.5,0],[0.75,0],[1,0],[1,0.25],[1,0.5],[1,0.75],[1,1],[0.75,1],[0.5,1],[0.25,1],[0,1],[0,0.75],[0,0.5],[0,0.25]];outlineConnect=0;html=1;whiteSpace=wrap;fontSize=12;fontStyle=0;container=1;pointerEvents=0;collapsible=0;recursiveResize=0;shape=mxgraph.aws4.group;grIcon=mxgraph.aws4.group_vpc;strokeColor=#0e8088;fillColor=#b0e3e6;verticalAlign=top;align=left;spacingLeft=30;dashed=0;fontColor=#0d8088;" parent="43" vertex="1">
                    <mxGeometry x="25" y="30" width="230" height="90" as="geometry"/>
                </mxCell>
                <mxCell id="45" value="10.118.0.0/16" style="text;html=1;align=left;verticalAlign=middle;resizable=0;points=[];autosize=1;strokeColor=none;fillColor=none;fontColor=#0d8088;fontStyle=1" parent="44" vertex="1">
                    <mxGeometry x="30" y="35" width="100" height="30" as="geometry"/>
                </mxCell>
                <mxCell id="40" value="hml-01" style="points=[[0,0],[0.25,0],[0.5,0],[0.75,0],[1,0],[1,0.25],[1,0.5],[1,0.75],[1,1],[0.75,1],[0.5,1],[0.25,1],[0,1],[0,0.75],[0,0.5],[0,0.25]];outlineConnect=0;gradientColor=none;html=1;whiteSpace=wrap;fontSize=12;fontStyle=0;container=1;pointerEvents=0;collapsible=0;recursiveResize=0;shape=mxgraph.aws4.group;grIcon=mxgraph.aws4.group_aws_cloud;strokeColor=#232F3E;fillColor=none;verticalAlign=top;align=left;spacingLeft=30;fontColor=#232F3E;dashed=0;" parent="32" vertex="1">
                    <mxGeometry x="20" y="327" width="280" height="140" as="geometry"/>
                </mxCell>
                <mxCell id="41" value="&lt;b style=&quot;&quot;&gt;&lt;font&gt;spoke-hml01-useast1-vpc01&lt;/font&gt;&lt;/b&gt;" style="points=[[0,0],[0.25,0],[0.5,0],[0.75,0],[1,0],[1,0.25],[1,0.5],[1,0.75],[1,1],[0.75,1],[0.5,1],[0.25,1],[0,1],[0,0.75],[0,0.5],[0,0.25]];outlineConnect=0;html=1;whiteSpace=wrap;fontSize=12;fontStyle=0;container=1;pointerEvents=0;collapsible=0;recursiveResize=0;shape=mxgraph.aws4.group;grIcon=mxgraph.aws4.group_vpc;strokeColor=#0e8088;fillColor=#b0e3e6;verticalAlign=top;align=left;spacingLeft=30;dashed=0;fontColor=#0d8088;" parent="40" vertex="1">
                    <mxGeometry x="25" y="30" width="230" height="90" as="geometry"/>
                </mxCell>
                <mxCell id="42" value="10.114.0.0/16" style="text;html=1;align=left;verticalAlign=middle;resizable=0;points=[];autosize=1;strokeColor=none;fillColor=none;fontColor=#0d8088;fontStyle=1" parent="41" vertex="1">
                    <mxGeometry x="30" y="35" width="100" height="30" as="geometry"/>
                </mxCell>
                <mxCell id="30" value="&lt;font color=&quot;#ffffff&quot;&gt;transit-gateway-us-east-1&lt;/font&gt;" style="sketch=0;points=[[0,0,0],[0.25,0,0],[0.5,0,0],[0.75,0,0],[1,0,0],[0,1,0],[0.25,1,0],[0.5,1,0],[0.75,1,0],[1,1,0],[0,0.25,0],[0,0.5,0],[0,0.75,0],[1,0.25,0],[1,0.5,0],[1,0.75,0]];outlineConnect=0;fontColor=#232F3E;gradientColor=#945DF2;gradientDirection=north;fillColor=#5A30B5;strokeColor=#ffffff;dashed=0;verticalLabelPosition=bottom;verticalAlign=top;align=center;html=1;fontSize=12;fontStyle=0;aspect=fixed;shape=mxgraph.aws4.resourceIcon;resIcon=mxgraph.aws4.transit_gateway;" parent="66" vertex="1">
                    <mxGeometry x="802" y="440" width="78" height="78" as="geometry"/>
                </mxCell>
                <mxCell id="49" value="hub-01-nprd" style="points=[[0,0],[0.25,0],[0.5,0],[0.75,0],[1,0],[1,0.25],[1,0.5],[1,0.75],[1,1],[0.75,1],[0.5,1],[0.25,1],[0,1],[0,0.75],[0,0.5],[0,0.25]];outlineConnect=0;gradientColor=none;html=1;whiteSpace=wrap;fontSize=12;fontStyle=0;container=1;pointerEvents=0;collapsible=0;recursiveResize=0;shape=mxgraph.aws4.group;grIcon=mxgraph.aws4.group_aws_cloud;strokeColor=#232F3E;fillColor=none;verticalAlign=top;align=left;spacingLeft=30;fontColor=#232F3E;dashed=0;" parent="66" vertex="1">
                    <mxGeometry x="340" y="40" width="250" height="265" as="geometry"/>
                </mxCell>
                <mxCell id="50" value="&lt;b style=&quot;&quot;&gt;&lt;font&gt;hub01-useast1-nprd&lt;/font&gt;&lt;/b&gt;" style="points=[[0,0],[0.25,0],[0.5,0],[0.75,0],[1,0],[1,0.25],[1,0.5],[1,0.75],[1,1],[0.75,1],[0.5,1],[0.25,1],[0,1],[0,0.75],[0,0.5],[0,0.25]];outlineConnect=0;html=1;whiteSpace=wrap;fontSize=12;fontStyle=0;container=1;pointerEvents=0;collapsible=0;recursiveResize=0;shape=mxgraph.aws4.group;grIcon=mxgraph.aws4.group_vpc;strokeColor=#0e8088;fillColor=#b0e3e6;verticalAlign=top;align=left;spacingLeft=30;dashed=0;fontColor=#0d8088;" parent="49" vertex="1">
                    <mxGeometry x="25" y="30" width="225" height="210" as="geometry"/>
                </mxCell>
                <mxCell id="51" value="10.108.0.0/19" style="text;html=1;align=left;verticalAlign=middle;resizable=0;points=[];autosize=1;strokeColor=none;fillColor=none;fontColor=#0d8088;fontStyle=1" parent="50" vertex="1">
                    <mxGeometry x="30" y="35" width="100" height="30" as="geometry"/>
                </mxCell>
                <mxCell id="55" value="firewall-nprd-&lt;br&gt;useast1-inout01" style="sketch=0;points=[[0,0,0],[0.25,0,0],[0.5,0,0],[0.75,0,0],[1,0,0],[0,1,0],[0.25,1,0],[0.5,1,0],[0.75,1,0],[1,1,0],[0,0.25,0],[0,0.5,0],[0,0.75,0],[1,0.25,0],[1,0.5,0],[1,0.75,0]];outlineConnect=0;fontColor=#232F3E;gradientColor=#F78E04;gradientDirection=north;fillColor=#D05C17;strokeColor=#ffffff;dashed=0;verticalLabelPosition=bottom;verticalAlign=top;align=center;html=1;fontSize=12;fontStyle=0;aspect=fixed;shape=mxgraph.aws4.resourceIcon;resIcon=mxgraph.aws4.ec2;" parent="50" vertex="1">
                    <mxGeometry x="25" y="87" width="78" height="78" as="geometry"/>
                </mxCell>
                <mxCell id="56" value="firewall-nprd-&lt;br&gt;useast1-lateral01" style="sketch=0;points=[[0,0,0],[0.25,0,0],[0.5,0,0],[0.75,0,0],[1,0,0],[0,1,0],[0.25,1,0],[0.5,1,0],[0.75,1,0],[1,1,0],[0,0.25,0],[0,0.5,0],[0,0.75,0],[1,0.25,0],[1,0.5,0],[1,0.75,0]];outlineConnect=0;fontColor=#232F3E;gradientColor=#F78E04;gradientDirection=north;fillColor=#D05C17;strokeColor=#ffffff;dashed=0;verticalLabelPosition=bottom;verticalAlign=top;align=center;html=1;fontSize=12;fontStyle=0;aspect=fixed;shape=mxgraph.aws4.resourceIcon;resIcon=mxgraph.aws4.ec2;" parent="50" vertex="1">
                    <mxGeometry x="130" y="87" width="78" height="78" as="geometry"/>
                </mxCell>
                <mxCell id="58" value="hub-01-prd" style="points=[[0,0],[0.25,0],[0.5,0],[0.75,0],[1,0],[1,0.25],[1,0.5],[1,0.75],[1,1],[0.75,1],[0.5,1],[0.25,1],[0,1],[0,0.75],[0,0.5],[0,0.25]];outlineConnect=0;gradientColor=none;html=1;whiteSpace=wrap;fontSize=12;fontStyle=0;container=1;pointerEvents=0;collapsible=0;recursiveResize=0;shape=mxgraph.aws4.group;grIcon=mxgraph.aws4.group_aws_cloud;strokeColor=#232F3E;fillColor=none;verticalAlign=top;align=left;spacingLeft=30;fontColor=#232F3E;dashed=0;" parent="66" vertex="1">
                    <mxGeometry x="640" y="40" width="250" height="265" as="geometry"/>
                </mxCell>
                <mxCell id="59" value="&lt;b style=&quot;&quot;&gt;&lt;font&gt;hub01-useast1-prd&lt;/font&gt;&lt;/b&gt;" style="points=[[0,0],[0.25,0],[0.5,0],[0.75,0],[1,0],[1,0.25],[1,0.5],[1,0.75],[1,1],[0.75,1],[0.5,1],[0.25,1],[0,1],[0,0.75],[0,0.5],[0,0.25]];outlineConnect=0;html=1;whiteSpace=wrap;fontSize=12;fontStyle=0;container=1;pointerEvents=0;collapsible=0;recursiveResize=0;shape=mxgraph.aws4.group;grIcon=mxgraph.aws4.group_vpc;strokeColor=#0e8088;fillColor=#b0e3e6;verticalAlign=top;align=left;spacingLeft=30;dashed=0;fontColor=#0d8088;" parent="58" vertex="1">
                    <mxGeometry x="25" y="30" width="225" height="210" as="geometry"/>
                </mxCell>
                <mxCell id="60" value="10.108.32.0/19" style="text;html=1;align=left;verticalAlign=middle;resizable=0;points=[];autosize=1;strokeColor=none;fillColor=none;fontColor=#0d8088;fontStyle=1" parent="59" vertex="1">
                    <mxGeometry x="30" y="35" width="100" height="30" as="geometry"/>
                </mxCell>
                <mxCell id="61" value="firewall-prd-&lt;br&gt;useast1-inout01" style="sketch=0;points=[[0,0,0],[0.25,0,0],[0.5,0,0],[0.75,0,0],[1,0,0],[0,1,0],[0.25,1,0],[0.5,1,0],[0.75,1,0],[1,1,0],[0,0.25,0],[0,0.5,0],[0,0.75,0],[1,0.25,0],[1,0.5,0],[1,0.75,0]];outlineConnect=0;fontColor=#232F3E;gradientColor=#F78E04;gradientDirection=north;fillColor=#D05C17;strokeColor=#ffffff;dashed=0;verticalLabelPosition=bottom;verticalAlign=top;align=center;html=1;fontSize=12;fontStyle=0;aspect=fixed;shape=mxgraph.aws4.resourceIcon;resIcon=mxgraph.aws4.ec2;" parent="59" vertex="1">
                    <mxGeometry x="25" y="87" width="78" height="78" as="geometry"/>
                </mxCell>
                <mxCell id="62" value="firewall-prd-&lt;br&gt;useast1-lateral01" style="sketch=0;points=[[0,0,0],[0.25,0,0],[0.5,0,0],[0.75,0,0],[1,0,0],[0,1,0],[0.25,1,0],[0.5,1,0],[0.75,1,0],[1,1,0],[0,0.25,0],[0,0.5,0],[0,0.75,0],[1,0.25,0],[1,0.5,0],[1,0.75,0]];outlineConnect=0;fontColor=#232F3E;gradientColor=#F78E04;gradientDirection=north;fillColor=#D05C17;strokeColor=#ffffff;dashed=0;verticalLabelPosition=bottom;verticalAlign=top;align=center;html=1;fontSize=12;fontStyle=0;aspect=fixed;shape=mxgraph.aws4.resourceIcon;resIcon=mxgraph.aws4.ec2;" parent="59" vertex="1">
                    <mxGeometry x="130" y="87" width="78" height="78" as="geometry"/>
                </mxCell>
                <mxCell id="120" value="" style="sketch=0;outlineConnect=0;fontColor=#232F3E;gradientColor=none;fillColor=#4D27AA;strokeColor=none;dashed=0;verticalLabelPosition=bottom;verticalAlign=top;align=center;html=1;fontSize=12;fontStyle=0;aspect=fixed;pointerEvents=1;shape=mxgraph.aws4.internet_gateway;" parent="66" vertex="1">
                    <mxGeometry x="830" y="80" width="50" height="50" as="geometry"/>
                </mxCell>
                <mxCell id="121" value="" style="sketch=0;outlineConnect=0;fontColor=#232F3E;gradientColor=none;fillColor=#4D27AA;strokeColor=none;dashed=0;verticalLabelPosition=bottom;verticalAlign=top;align=center;html=1;fontSize=12;fontStyle=0;aspect=fixed;pointerEvents=1;shape=mxgraph.aws4.internet_gateway;" parent="66" vertex="1">
                    <mxGeometry x="530" y="80" width="50" height="50" as="geometry"/>
                </mxCell>
                <mxCell id="65" style="edgeStyle=none;html=1;strokeWidth=3;fontColor=#0d8088;endArrow=none;endFill=0;" parent="1" source="30" target="64" edge="1">
                    <mxGeometry relative="1" as="geometry"/>
                </mxCell>
                <mxCell id="94" style="edgeStyle=none;html=1;entryX=1;entryY=0.5;entryDx=0;entryDy=0;strokeWidth=3;fontColor=#FFFFFF;endArrow=none;endFill=0;" parent="1" source="88" target="25" edge="1">
                    <mxGeometry relative="1" as="geometry"/>
                </mxCell>
                <mxCell id="95" style="edgeStyle=none;html=1;entryX=0;entryY=0.5;entryDx=0;entryDy=0;strokeWidth=3;fontColor=#FFFFFF;endArrow=none;endFill=0;" parent="1" source="30" target="25" edge="1">
                    <mxGeometry relative="1" as="geometry"/>
                </mxCell>
                <mxCell id="114" style="edgeStyle=none;html=1;strokeWidth=3;fontColor=#FFFFFF;endArrow=none;endFill=0;" parent="1" source="30" edge="1">
                    <mxGeometry relative="1" as="geometry">
                        <mxPoint x="-290" y="-240" as="targetPoint"/>
                    </mxGeometry>
                </mxCell>
                <mxCell id="115" style="edgeStyle=none;html=1;strokeWidth=3;fontColor=#FFFFFF;endArrow=none;endFill=0;" parent="1" source="30" edge="1">
                    <mxGeometry relative="1" as="geometry">
                        <mxPoint x="-290" y="-400" as="targetPoint"/>
                    </mxGeometry>
                </mxCell>
                <mxCell id="116" style="edgeStyle=none;html=1;strokeWidth=3;fontColor=#FFFFFF;endArrow=none;endFill=0;" parent="1" source="30" edge="1">
                    <mxGeometry relative="1" as="geometry">
                        <mxPoint x="-290" y="-510" as="targetPoint"/>
                    </mxGeometry>
                </mxCell>
                <mxCell id="117" style="edgeStyle=none;html=1;strokeWidth=3;fontColor=#FFFFFF;endArrow=none;endFill=0;" parent="1" source="30" edge="1">
                    <mxGeometry relative="1" as="geometry">
                        <mxPoint x="-80" y="-520" as="targetPoint"/>
                    </mxGeometry>
                </mxCell>
                <mxCell id="118" style="edgeStyle=none;html=1;strokeWidth=3;fontColor=#FFFFFF;endArrow=none;endFill=0;" parent="1" source="30" edge="1">
                    <mxGeometry relative="1" as="geometry">
                        <mxPoint x="220" y="-520" as="targetPoint"/>
                    </mxGeometry>
                </mxCell>
            </root>
        </mxGraphModel>
    </diagram>
    <diagram id="vnJtZE06lP6vNplK9W4n" name="logs-architecture">
        <mxGraphModel dx="3027" dy="1879" grid="1" gridSize="10" guides="1" tooltips="1" connect="1" arrows="1" fold="1" page="1" pageScale="1" pageWidth="827" pageHeight="1169" math="0" shadow="0">
            <root>
                <mxCell id="0"/>
                <mxCell id="1" parent="0"/>
                <mxCell id="MdMVErHDvtU-DqAZH9lY-1" value="AWS Cloud" style="points=[[0,0],[0.25,0],[0.5,0],[0.75,0],[1,0],[1,0.25],[1,0.5],[1,0.75],[1,1],[0.75,1],[0.5,1],[0.25,1],[0,1],[0,0.75],[0,0.5],[0,0.25]];outlineConnect=0;html=1;whiteSpace=wrap;fontSize=12;fontStyle=0;container=0;pointerEvents=0;collapsible=0;recursiveResize=0;shape=mxgraph.aws4.group;grIcon=mxgraph.aws4.group_aws_cloud_alt;strokeColor=#314354;fillColor=#647687;verticalAlign=top;align=left;spacingLeft=30;dashed=0;fontColor=#ffffff;" vertex="1" parent="1">
                    <mxGeometry x="-1640" y="-1120" width="800" height="490" as="geometry"/>
                </mxCell>
                <mxCell id="MdMVErHDvtU-DqAZH9lY-5" value="Master Account" style="points=[[0,0],[0.25,0],[0.5,0],[0.75,0],[1,0],[1,0.25],[1,0.5],[1,0.75],[1,1],[0.75,1],[0.5,1],[0.25,1],[0,1],[0,0.75],[0,0.5],[0,0.25]];outlineConnect=0;gradientColor=none;html=1;whiteSpace=wrap;fontSize=12;fontStyle=0;container=1;pointerEvents=0;collapsible=0;recursiveResize=0;shape=mxgraph.aws4.group;grIcon=mxgraph.aws4.group_aws_cloud;strokeColor=#232F3E;fillColor=none;verticalAlign=top;align=left;spacingLeft=30;fontColor=#FFFFFF;dashed=0;" vertex="1" parent="1">
                    <mxGeometry x="-1600" y="-1080" width="350" height="180" as="geometry"/>
                </mxCell>
                <mxCell id="MdMVErHDvtU-DqAZH9lY-3" value="&lt;font color=&quot;#ffffff&quot;&gt;AWS CloudTrail&lt;/font&gt;" style="sketch=0;points=[[0,0,0],[0.25,0,0],[0.5,0,0],[0.75,0,0],[1,0,0],[0,1,0],[0.25,1,0],[0.5,1,0],[0.75,1,0],[1,1,0],[0,0.25,0],[0,0.5,0],[0,0.75,0],[1,0.25,0],[1,0.5,0],[1,0.75,0]];points=[[0,0,0],[0.25,0,0],[0.5,0,0],[0.75,0,0],[1,0,0],[0,1,0],[0.25,1,0],[0.5,1,0],[0.75,1,0],[1,1,0],[0,0.25,0],[0,0.5,0],[0,0.75,0],[1,0.25,0],[1,0.5,0],[1,0.75,0]];outlineConnect=0;fontColor=#232F3E;gradientColor=#F34482;gradientDirection=north;fillColor=#BC1356;strokeColor=#ffffff;dashed=0;verticalLabelPosition=bottom;verticalAlign=top;align=center;html=1;fontSize=12;fontStyle=0;aspect=fixed;shape=mxgraph.aws4.resourceIcon;resIcon=mxgraph.aws4.cloudtrail;" vertex="1" parent="MdMVErHDvtU-DqAZH9lY-5">
                    <mxGeometry x="240" y="50" width="78" height="78" as="geometry"/>
                </mxCell>
                <mxCell id="MdMVErHDvtU-DqAZH9lY-2" value="&lt;font color=&quot;#ffffff&quot;&gt;AWS Control Tower&lt;/font&gt;" style="sketch=0;points=[[0,0,0],[0.25,0,0],[0.5,0,0],[0.75,0,0],[1,0,0],[0,1,0],[0.25,1,0],[0.5,1,0],[0.75,1,0],[1,1,0],[0,0.25,0],[0,0.5,0],[0,0.75,0],[1,0.25,0],[1,0.5,0],[1,0.75,0]];points=[[0,0,0],[0.25,0,0],[0.5,0,0],[0.75,0,0],[1,0,0],[0,1,0],[0.25,1,0],[0.5,1,0],[0.75,1,0],[1,1,0],[0,0.25,0],[0,0.5,0],[0,0.75,0],[1,0.25,0],[1,0.5,0],[1,0.75,0]];outlineConnect=0;fontColor=#232F3E;gradientColor=#F34482;gradientDirection=north;fillColor=#BC1356;strokeColor=#ffffff;dashed=0;verticalLabelPosition=bottom;verticalAlign=top;align=center;html=1;fontSize=12;fontStyle=0;aspect=fixed;shape=mxgraph.aws4.resourceIcon;resIcon=mxgraph.aws4.control_tower;" vertex="1" parent="MdMVErHDvtU-DqAZH9lY-5">
                    <mxGeometry x="30" y="50" width="78" height="78" as="geometry"/>
                </mxCell>
                <mxCell id="MdMVErHDvtU-DqAZH9lY-4" style="edgeStyle=none;html=1;entryX=0;entryY=0.5;entryDx=0;entryDy=0;entryPerimeter=0;fontColor=#FFFFFF;" edge="1" parent="MdMVErHDvtU-DqAZH9lY-5" source="MdMVErHDvtU-DqAZH9lY-2" target="MdMVErHDvtU-DqAZH9lY-3">
                    <mxGeometry relative="1" as="geometry"/>
                </mxCell>
                <mxCell id="MdMVErHDvtU-DqAZH9lY-6" value="Log Archive" style="points=[[0,0],[0.25,0],[0.5,0],[0.75,0],[1,0],[1,0.25],[1,0.5],[1,0.75],[1,1],[0.75,1],[0.5,1],[0.25,1],[0,1],[0,0.75],[0,0.5],[0,0.25]];outlineConnect=0;gradientColor=none;html=1;whiteSpace=wrap;fontSize=12;fontStyle=0;container=1;pointerEvents=0;collapsible=0;recursiveResize=0;shape=mxgraph.aws4.group;grIcon=mxgraph.aws4.group_aws_cloud;strokeColor=#232F3E;fillColor=none;verticalAlign=top;align=left;spacingLeft=30;fontColor=#FFFFFF;dashed=0;" vertex="1" parent="1">
                    <mxGeometry x="-1600" y="-860" width="740" height="180" as="geometry"/>
                </mxCell>
                <mxCell id="MdMVErHDvtU-DqAZH9lY-14" style="edgeStyle=none;html=1;fontColor=#FFFFFF;" edge="1" parent="MdMVErHDvtU-DqAZH9lY-6" source="MdMVErHDvtU-DqAZH9lY-7" target="MdMVErHDvtU-DqAZH9lY-13">
                    <mxGeometry relative="1" as="geometry"/>
                </mxCell>
                <mxCell id="MdMVErHDvtU-DqAZH9lY-7" value="&lt;font color=&quot;#ffffff&quot;&gt;AWS CloudTrail&lt;/font&gt;" style="sketch=0;points=[[0,0,0],[0.25,0,0],[0.5,0,0],[0.75,0,0],[1,0,0],[0,1,0],[0.25,1,0],[0.5,1,0],[0.75,1,0],[1,1,0],[0,0.25,0],[0,0.5,0],[0,0.75,0],[1,0.25,0],[1,0.5,0],[1,0.75,0]];points=[[0,0,0],[0.25,0,0],[0.5,0,0],[0.75,0,0],[1,0,0],[0,1,0],[0.25,1,0],[0.5,1,0],[0.75,1,0],[1,1,0],[0,0.25,0],[0,0.5,0],[0,0.75,0],[1,0.25,0],[1,0.5,0],[1,0.75,0]];outlineConnect=0;fontColor=#232F3E;gradientColor=#F34482;gradientDirection=north;fillColor=#BC1356;strokeColor=#ffffff;dashed=0;verticalLabelPosition=bottom;verticalAlign=top;align=center;html=1;fontSize=12;fontStyle=0;aspect=fixed;shape=mxgraph.aws4.resourceIcon;resIcon=mxgraph.aws4.cloudtrail;" vertex="1" parent="MdMVErHDvtU-DqAZH9lY-6">
                    <mxGeometry x="30" y="51" width="78" height="78" as="geometry"/>
                </mxCell>
                <mxCell id="MdMVErHDvtU-DqAZH9lY-13" value="AWS S3" style="sketch=0;points=[[0,0,0],[0.25,0,0],[0.5,0,0],[0.75,0,0],[1,0,0],[0,1,0],[0.25,1,0],[0.5,1,0],[0.75,1,0],[1,1,0],[0,0.25,0],[0,0.5,0],[0,0.75,0],[1,0.25,0],[1,0.5,0],[1,0.75,0]];outlineConnect=0;fontColor=#FFFFFF;gradientColor=#60A337;gradientDirection=north;fillColor=#277116;strokeColor=#ffffff;dashed=0;verticalLabelPosition=bottom;verticalAlign=top;align=center;html=1;fontSize=12;fontStyle=0;aspect=fixed;shape=mxgraph.aws4.resourceIcon;resIcon=mxgraph.aws4.s3;" vertex="1" parent="MdMVErHDvtU-DqAZH9lY-6">
                    <mxGeometry x="240" y="51" width="78" height="78" as="geometry"/>
                </mxCell>
                <mxCell id="MdMVErHDvtU-DqAZH9lY-20" style="edgeStyle=none;html=1;fontColor=#FFFFFF;" edge="1" parent="MdMVErHDvtU-DqAZH9lY-6" source="MdMVErHDvtU-DqAZH9lY-19" target="MdMVErHDvtU-DqAZH9lY-13">
                    <mxGeometry relative="1" as="geometry"/>
                </mxCell>
                <mxCell id="MdMVErHDvtU-DqAZH9lY-19" value="&lt;font color=&quot;#ffffff&quot;&gt;AWS Lambda&lt;/font&gt;" style="sketch=0;points=[[0,0,0],[0.25,0,0],[0.5,0,0],[0.75,0,0],[1,0,0],[0,1,0],[0.25,1,0],[0.5,1,0],[0.75,1,0],[1,1,0],[0,0.25,0],[0,0.5,0],[0,0.75,0],[1,0.25,0],[1,0.5,0],[1,0.75,0]];outlineConnect=0;fontColor=#232F3E;gradientColor=#F78E04;gradientDirection=north;fillColor=#D05C17;strokeColor=#ffffff;dashed=0;verticalLabelPosition=bottom;verticalAlign=top;align=center;html=1;fontSize=12;fontStyle=0;aspect=fixed;shape=mxgraph.aws4.resourceIcon;resIcon=mxgraph.aws4.lambda;" vertex="1" parent="MdMVErHDvtU-DqAZH9lY-6">
                    <mxGeometry x="530" y="51" width="78" height="78" as="geometry"/>
                </mxCell>
                <mxCell id="MdMVErHDvtU-DqAZH9lY-10" value="AWS Account xx" style="points=[[0,0],[0.25,0],[0.5,0],[0.75,0],[1,0],[1,0.25],[1,0.5],[1,0.75],[1,1],[0.75,1],[0.5,1],[0.25,1],[0,1],[0,0.75],[0,0.5],[0,0.25]];outlineConnect=0;gradientColor=none;html=1;whiteSpace=wrap;fontSize=12;fontStyle=0;container=1;pointerEvents=0;collapsible=0;recursiveResize=0;shape=mxgraph.aws4.group;grIcon=mxgraph.aws4.group_aws_cloud;strokeColor=#232F3E;fillColor=none;verticalAlign=top;align=left;spacingLeft=30;fontColor=#FFFFFF;dashed=0;" vertex="1" parent="1">
                    <mxGeometry x="-1210" y="-1080" width="350" height="180" as="geometry"/>
                </mxCell>
                <mxCell id="MdMVErHDvtU-DqAZH9lY-11" value="&lt;font color=&quot;#ffffff&quot;&gt;AWS CloudTrail&lt;/font&gt;" style="sketch=0;points=[[0,0,0],[0.25,0,0],[0.5,0,0],[0.75,0,0],[1,0,0],[0,1,0],[0.25,1,0],[0.5,1,0],[0.75,1,0],[1,1,0],[0,0.25,0],[0,0.5,0],[0,0.75,0],[1,0.25,0],[1,0.5,0],[1,0.75,0]];points=[[0,0,0],[0.25,0,0],[0.5,0,0],[0.75,0,0],[1,0,0],[0,1,0],[0.25,1,0],[0.5,1,0],[0.75,1,0],[1,1,0],[0,0.25,0],[0,0.5,0],[0,0.75,0],[1,0.25,0],[1,0.5,0],[1,0.75,0]];outlineConnect=0;fontColor=#232F3E;gradientColor=#F34482;gradientDirection=north;fillColor=#BC1356;strokeColor=#ffffff;dashed=0;verticalLabelPosition=bottom;verticalAlign=top;align=center;html=1;fontSize=12;fontStyle=0;aspect=fixed;shape=mxgraph.aws4.resourceIcon;resIcon=mxgraph.aws4.cloudtrail;" vertex="1" parent="MdMVErHDvtU-DqAZH9lY-10">
                    <mxGeometry x="136" y="50" width="78" height="78" as="geometry"/>
                </mxCell>
                <mxCell id="MdMVErHDvtU-DqAZH9lY-12" style="edgeStyle=none;html=1;fontColor=#FFFFFF;" edge="1" parent="1" source="MdMVErHDvtU-DqAZH9lY-3" target="MdMVErHDvtU-DqAZH9lY-11">
                    <mxGeometry relative="1" as="geometry"/>
                </mxCell>
                <mxCell id="MdMVErHDvtU-DqAZH9lY-15" style="edgeStyle=none;html=1;fontColor=#FFFFFF;" edge="1" parent="1" source="MdMVErHDvtU-DqAZH9lY-3" target="MdMVErHDvtU-DqAZH9lY-13">
                    <mxGeometry relative="1" as="geometry"/>
                </mxCell>
                <mxCell id="MdMVErHDvtU-DqAZH9lY-16" style="edgeStyle=none;html=1;entryX=1;entryY=0;entryDx=0;entryDy=0;entryPerimeter=0;fontColor=#FFFFFF;" edge="1" parent="1" source="MdMVErHDvtU-DqAZH9lY-11" target="MdMVErHDvtU-DqAZH9lY-13">
                    <mxGeometry relative="1" as="geometry"/>
                </mxCell>
                <mxCell id="MdMVErHDvtU-DqAZH9lY-18" value="" style="verticalLabelPosition=bottom;sketch=0;html=1;fillColor=#A153A0;strokeColor=#ffffff;verticalAlign=top;align=center;points=[[0,0.5,0],[0.125,0.25,0],[0.25,0,0],[0.5,0,0],[0.75,0,0],[0.875,0.25,0],[1,0.5,0],[0.875,0.75,0],[0.75,1,0],[0.5,1,0],[0.125,0.75,0]];pointerEvents=1;shape=mxgraph.cisco_safe.compositeIcon;bgIcon=mxgraph.cisco_safe.design.blank_device;resIcon=mxgraph.cisco_safe.design.siem;fontColor=#FFFFFF;" vertex="1" parent="1">
                    <mxGeometry x="-1280" y="-600" width="100" height="85" as="geometry"/>
                </mxCell>
                <mxCell id="MdMVErHDvtU-DqAZH9lY-21" style="edgeStyle=none;html=1;entryX=0.5;entryY=0;entryDx=0;entryDy=0;entryPerimeter=0;fontColor=#FFFFFF;" edge="1" parent="1" source="MdMVErHDvtU-DqAZH9lY-19" target="MdMVErHDvtU-DqAZH9lY-18">
                    <mxGeometry relative="1" as="geometry"/>
                </mxCell>
            </root>
        </mxGraphModel>
    </diagram>
    <diagram id="bjSGuJ6b0bvXQuFCB92R" name="EstratÃ©gia de seguranÃ§a em nuvem">
        <mxGraphModel dx="850" dy="1585" grid="1" gridSize="10" guides="1" tooltips="1" connect="1" arrows="1" fold="1" page="1" pageScale="1" pageWidth="827" pageHeight="1169" math="0" shadow="0">
            <root>
                <mxCell id="0"/>
                <mxCell id="1" parent="0"/>
                <mxCell id="FeO4RGUYPiLeuhBBf7sC-14" style="edgeStyle=none;html=1;entryX=0.25;entryY=1;entryDx=0;entryDy=0;" parent="1" source="FeO4RGUYPiLeuhBBf7sC-1" target="FeO4RGUYPiLeuhBBf7sC-13" edge="1">
                    <mxGeometry relative="1" as="geometry"/>
                </mxCell>
                <mxCell id="FeO4RGUYPiLeuhBBf7sC-1" value="Credenciais de usuÃ¡rios violadas" style="whiteSpace=wrap;html=1;aspect=fixed;fillColor=#f5f5f5;fontColor=#333333;strokeColor=#666666;" parent="1" vertex="1">
                    <mxGeometry x="40" y="40" width="80" height="80" as="geometry"/>
                </mxCell>
                <mxCell id="FeO4RGUYPiLeuhBBf7sC-15" style="edgeStyle=none;html=1;entryX=0.5;entryY=1;entryDx=0;entryDy=0;" parent="1" source="FeO4RGUYPiLeuhBBf7sC-2" target="FeO4RGUYPiLeuhBBf7sC-13" edge="1">
                    <mxGeometry relative="1" as="geometry"/>
                </mxCell>
                <mxCell id="FeO4RGUYPiLeuhBBf7sC-2" value="Integridade dos dados insuficiente" style="whiteSpace=wrap;html=1;aspect=fixed;fillColor=#f5f5f5;fontColor=#333333;strokeColor=#666666;" parent="1" vertex="1">
                    <mxGeometry x="280" y="40" width="80" height="80" as="geometry"/>
                </mxCell>
                <mxCell id="FeO4RGUYPiLeuhBBf7sC-16" style="edgeStyle=none;html=1;entryX=0.75;entryY=1;entryDx=0;entryDy=0;" parent="1" source="FeO4RGUYPiLeuhBBf7sC-3" target="FeO4RGUYPiLeuhBBf7sC-13" edge="1">
                    <mxGeometry relative="1" as="geometry"/>
                </mxCell>
                <mxCell id="FeO4RGUYPiLeuhBBf7sC-3" value="Acesso excessivamente permissivo" style="whiteSpace=wrap;html=1;aspect=fixed;fillColor=#f5f5f5;fontColor=#333333;strokeColor=#666666;" parent="1" vertex="1">
                    <mxGeometry x="520" y="40" width="80" height="80" as="geometry"/>
                </mxCell>
                <mxCell id="FeO4RGUYPiLeuhBBf7sC-5" style="edgeStyle=none;html=1;entryX=0.5;entryY=1;entryDx=0;entryDy=0;" parent="1" source="FeO4RGUYPiLeuhBBf7sC-4" target="FeO4RGUYPiLeuhBBf7sC-1" edge="1">
                    <mxGeometry relative="1" as="geometry"/>
                </mxCell>
                <mxCell id="FeO4RGUYPiLeuhBBf7sC-4" value="Ex: Credenciais no cÃ³digo fonte" style="rounded=0;whiteSpace=wrap;html=1;fillColor=#f5f5f5;fontColor=#333333;strokeColor=#666666;" parent="1" vertex="1">
                    <mxGeometry x="20" y="160" width="120" height="40" as="geometry"/>
                </mxCell>
                <mxCell id="FeO4RGUYPiLeuhBBf7sC-7" style="edgeStyle=none;html=1;entryX=0.5;entryY=1;entryDx=0;entryDy=0;" parent="1" source="FeO4RGUYPiLeuhBBf7sC-6" target="FeO4RGUYPiLeuhBBf7sC-2" edge="1">
                    <mxGeometry relative="1" as="geometry"/>
                </mxCell>
                <mxCell id="FeO4RGUYPiLeuhBBf7sC-6" value="Ex: Ransomware" style="rounded=0;whiteSpace=wrap;html=1;fillColor=#f5f5f5;fontColor=#333333;strokeColor=#666666;" parent="1" vertex="1">
                    <mxGeometry x="260" y="160" width="120" height="40" as="geometry"/>
                </mxCell>
                <mxCell id="FeO4RGUYPiLeuhBBf7sC-9" style="edgeStyle=none;html=1;entryX=0.5;entryY=1;entryDx=0;entryDy=0;" parent="1" source="FeO4RGUYPiLeuhBBf7sC-8" target="FeO4RGUYPiLeuhBBf7sC-3" edge="1">
                    <mxGeometry relative="1" as="geometry"/>
                </mxCell>
                <mxCell id="FeO4RGUYPiLeuhBBf7sC-8" value="Ex: Escalar privilÃ©gio" style="rounded=0;whiteSpace=wrap;html=1;fillColor=#f5f5f5;fontColor=#333333;strokeColor=#666666;" parent="1" vertex="1">
                    <mxGeometry x="500" y="160" width="120" height="40" as="geometry"/>
                </mxCell>
                <mxCell id="FeO4RGUYPiLeuhBBf7sC-10" value="Ex: Acesso indevido ao ambiente de PRD" style="rounded=0;whiteSpace=wrap;html=1;fillColor=#f5f5f5;fontColor=#333333;strokeColor=#666666;" parent="1" vertex="1">
                    <mxGeometry x="500" y="210" width="120" height="40" as="geometry"/>
                </mxCell>
                <mxCell id="FeO4RGUYPiLeuhBBf7sC-11" value="Ex: Perca da chave de criptografia" style="rounded=0;whiteSpace=wrap;html=1;fillColor=#f5f5f5;fontColor=#333333;strokeColor=#666666;" parent="1" vertex="1">
                    <mxGeometry x="260" y="210" width="120" height="40" as="geometry"/>
                </mxCell>
                <mxCell id="FeO4RGUYPiLeuhBBf7sC-12" value="Ex: AutenticaÃ§Ã£o descentralizada" style="rounded=0;whiteSpace=wrap;html=1;fillColor=#f5f5f5;fontColor=#333333;strokeColor=#666666;" parent="1" vertex="1">
                    <mxGeometry x="20" y="210" width="120" height="40" as="geometry"/>
                </mxCell>
                <mxCell id="FeO4RGUYPiLeuhBBf7sC-13" value="Incidentes comuns" style="rounded=0;whiteSpace=wrap;html=1;fillColor=#f5f5f5;fontColor=#333333;strokeColor=#666666;" parent="1" vertex="1">
                    <mxGeometry x="260" y="-80" width="120" height="40" as="geometry"/>
                </mxCell>
                <mxCell id="FeO4RGUYPiLeuhBBf7sC-20" value="AWS Cloud" style="points=[[0,0],[0.25,0],[0.5,0],[0.75,0],[1,0],[1,0.25],[1,0.5],[1,0.75],[1,1],[0.75,1],[0.5,1],[0.25,1],[0,1],[0,0.75],[0,0.5],[0,0.25]];outlineConnect=0;gradientColor=none;html=1;whiteSpace=wrap;fontSize=12;fontStyle=0;container=1;pointerEvents=0;collapsible=0;recursiveResize=0;shape=mxgraph.aws4.group;grIcon=mxgraph.aws4.group_aws_cloud;strokeColor=#232F3E;fillColor=none;verticalAlign=top;align=left;spacingLeft=30;fontColor=#232F3E;dashed=0;" parent="1" vertex="1">
                    <mxGeometry x="160" y="-720" width="760" height="1740" as="geometry"/>
                </mxCell>
                <mxCell id="FeO4RGUYPiLeuhBBf7sC-22" value="" style="rounded=0;whiteSpace=wrap;html=1;fontColor=#333333;fillColor=#f5f5f5;strokeColor=#666666;" parent="FeO4RGUYPiLeuhBBf7sC-20" vertex="1">
                    <mxGeometry x="160" y="70" width="320" height="160" as="geometry"/>
                </mxCell>
                <mxCell id="FeO4RGUYPiLeuhBBf7sC-21" value="vm-01" style="sketch=0;points=[[0,0,0],[0.25,0,0],[0.5,0,0],[0.75,0,0],[1,0,0],[0,1,0],[0.25,1,0],[0.5,1,0],[0.75,1,0],[1,1,0],[0,0.25,0],[0,0.5,0],[0,0.75,0],[1,0.25,0],[1,0.5,0],[1,0.75,0]];outlineConnect=0;fontColor=#000000;gradientColor=#F78E04;gradientDirection=north;fillColor=#D05C17;strokeColor=#ffffff;dashed=0;verticalLabelPosition=bottom;verticalAlign=top;align=center;html=1;fontSize=12;fontStyle=0;aspect=fixed;shape=mxgraph.aws4.resourceIcon;resIcon=mxgraph.aws4.ec2;" parent="FeO4RGUYPiLeuhBBf7sC-20" vertex="1">
                    <mxGeometry x="211.5" y="110" width="78" height="78" as="geometry"/>
                </mxCell>
                <mxCell id="FeO4RGUYPiLeuhBBf7sC-23" value="CWPP" style="rounded=0;whiteSpace=wrap;html=1;strokeColor=#006EAF;fillColor=#1ba1e2;fontStyle=1;fontColor=#ffffff;" parent="FeO4RGUYPiLeuhBBf7sC-20" vertex="1">
                    <mxGeometry x="160" y="250" width="160" height="20" as="geometry"/>
                </mxCell>
                <mxCell id="FeO4RGUYPiLeuhBBf7sC-24" value="Hardening - SO" style="rounded=0;whiteSpace=wrap;html=1;strokeColor=#006EAF;fillColor=#1ba1e2;fontStyle=1;fontColor=#ffffff;" parent="FeO4RGUYPiLeuhBBf7sC-20" vertex="1">
                    <mxGeometry x="160" y="230" width="160" height="20" as="geometry"/>
                </mxCell>
                <mxCell id="FeO4RGUYPiLeuhBBf7sC-26" value="EDR / Anti-Malware" style="rounded=0;whiteSpace=wrap;html=1;strokeColor=#006EAF;fillColor=#1ba1e2;fontStyle=1;fontColor=#ffffff;" parent="FeO4RGUYPiLeuhBBf7sC-20" vertex="1">
                    <mxGeometry x="320" y="230" width="160" height="20" as="geometry"/>
                </mxCell>
                <mxCell id="FeO4RGUYPiLeuhBBf7sC-27" value="vm-02" style="sketch=0;points=[[0,0,0],[0.25,0,0],[0.5,0,0],[0.75,0,0],[1,0,0],[0,1,0],[0.25,1,0],[0.5,1,0],[0.75,1,0],[1,1,0],[0,0.25,0],[0,0.5,0],[0,0.75,0],[1,0.25,0],[1,0.5,0],[1,0.75,0]];outlineConnect=0;fontColor=#000000;gradientColor=#F78E04;gradientDirection=north;fillColor=#D05C17;strokeColor=#ffffff;dashed=0;verticalLabelPosition=bottom;verticalAlign=top;align=center;html=1;fontSize=12;fontStyle=0;aspect=fixed;shape=mxgraph.aws4.resourceIcon;resIcon=mxgraph.aws4.ec2;" parent="FeO4RGUYPiLeuhBBf7sC-20" vertex="1">
                    <mxGeometry x="350.5" y="110" width="78" height="78" as="geometry"/>
                </mxCell>
                <mxCell id="FeO4RGUYPiLeuhBBf7sC-28" value="Projeto A" style="rounded=0;whiteSpace=wrap;html=1;strokeColor=#36393d;fillColor=#cce5ff;fontStyle=1;fontColor=#000000;" parent="FeO4RGUYPiLeuhBBf7sC-20" vertex="1">
                    <mxGeometry x="160" y="70" width="160" height="20" as="geometry"/>
                </mxCell>
                <mxCell id="FeO4RGUYPiLeuhBBf7sC-38" style="edgeStyle=none;html=1;entryX=1;entryY=0.75;entryDx=0;entryDy=0;fontColor=#000000;exitX=0;exitY=0.75;exitDx=0;exitDy=0;strokeWidth=4;endArrow=none;endFill=0;" parent="FeO4RGUYPiLeuhBBf7sC-20" source="FeO4RGUYPiLeuhBBf7sC-29" target="FeO4RGUYPiLeuhBBf7sC-22" edge="1">
                    <mxGeometry relative="1" as="geometry"/>
                </mxCell>
                <mxCell id="FeO4RGUYPiLeuhBBf7sC-29" value="" style="rounded=0;whiteSpace=wrap;html=1;fontColor=#333333;fillColor=#f5f5f5;strokeColor=#666666;" parent="FeO4RGUYPiLeuhBBf7sC-20" vertex="1">
                    <mxGeometry x="580" y="70" width="320" height="160" as="geometry"/>
                </mxCell>
                <mxCell id="FeO4RGUYPiLeuhBBf7sC-31" value="CWPP" style="rounded=0;whiteSpace=wrap;html=1;strokeColor=#006EAF;fillColor=#1ba1e2;fontStyle=1;fontColor=#ffffff;" parent="FeO4RGUYPiLeuhBBf7sC-20" vertex="1">
                    <mxGeometry x="580" y="250" width="160" height="20" as="geometry"/>
                </mxCell>
                <mxCell id="FeO4RGUYPiLeuhBBf7sC-32" value="Hardening - Container" style="rounded=0;whiteSpace=wrap;html=1;strokeColor=#006EAF;fillColor=#1ba1e2;fontStyle=1;fontColor=#ffffff;" parent="FeO4RGUYPiLeuhBBf7sC-20" vertex="1">
                    <mxGeometry x="580" y="230" width="160" height="20" as="geometry"/>
                </mxCell>
                <mxCell id="FeO4RGUYPiLeuhBBf7sC-33" value="RASP" style="rounded=0;whiteSpace=wrap;html=1;strokeColor=#006EAF;fillColor=#1ba1e2;fontStyle=1;fontColor=#ffffff;" parent="FeO4RGUYPiLeuhBBf7sC-20" vertex="1">
                    <mxGeometry x="740" y="230" width="160" height="20" as="geometry"/>
                </mxCell>
                <mxCell id="FeO4RGUYPiLeuhBBf7sC-35" value="vm-02" style="sketch=0;points=[[0,0,0],[0.25,0,0],[0.5,0,0],[0.75,0,0],[1,0,0],[0,1,0],[0.25,1,0],[0.5,1,0],[0.75,1,0],[1,1,0],[0,0.25,0],[0,0.5,0],[0,0.75,0],[1,0.25,0],[1,0.5,0],[1,0.75,0]];outlineConnect=0;fontColor=#000000;gradientColor=#F78E04;gradientDirection=north;fillColor=#D05C17;strokeColor=#ffffff;dashed=0;verticalLabelPosition=bottom;verticalAlign=top;align=center;html=1;fontSize=12;fontStyle=0;aspect=fixed;shape=mxgraph.aws4.resourceIcon;resIcon=mxgraph.aws4.ec2;" parent="FeO4RGUYPiLeuhBBf7sC-20" vertex="1">
                    <mxGeometry x="770.5" y="110" width="78" height="78" as="geometry"/>
                </mxCell>
                <mxCell id="FeO4RGUYPiLeuhBBf7sC-36" value="Projeto B" style="rounded=0;whiteSpace=wrap;html=1;strokeColor=#36393d;fillColor=#cce5ff;fontStyle=1;fontColor=#000000;" parent="FeO4RGUYPiLeuhBBf7sC-20" vertex="1">
                    <mxGeometry x="580" y="70" width="160" height="20" as="geometry"/>
                </mxCell>
                <mxCell id="FeO4RGUYPiLeuhBBf7sC-37" value="" style="sketch=0;outlineConnect=0;fontColor=#232F3E;gradientColor=none;fillColor=#4D27AA;strokeColor=none;dashed=0;verticalLabelPosition=bottom;verticalAlign=top;align=center;html=1;fontSize=12;fontStyle=0;aspect=fixed;pointerEvents=1;shape=mxgraph.aws4.peering;" parent="FeO4RGUYPiLeuhBBf7sC-20" vertex="1">
                    <mxGeometry x="490" y="120" width="78" height="78" as="geometry"/>
                </mxCell>
                <mxCell id="FeO4RGUYPiLeuhBBf7sC-39" value="X" style="edgeLabel;html=1;align=center;verticalAlign=middle;resizable=0;points=[];fontSize=48;fontStyle=1;fontColor=#FF0000;labelBackgroundColor=none;" parent="FeO4RGUYPiLeuhBBf7sC-20" vertex="1" connectable="0">
                    <mxGeometry x="389.5" y="1740" as="geometry">
                        <mxPoint x="140" y="-1546" as="offset"/>
                    </mxGeometry>
                </mxCell>
                <mxCell id="FeO4RGUYPiLeuhBBf7sC-40" value="function-01" style="sketch=0;points=[[0,0,0],[0.25,0,0],[0.5,0,0],[0.75,0,0],[1,0,0],[0,1,0],[0.25,1,0],[0.5,1,0],[0.75,1,0],[1,1,0],[0,0.25,0],[0,0.5,0],[0,0.75,0],[1,0.25,0],[1,0.5,0],[1,0.75,0]];outlineConnect=0;fontColor=#232F3E;gradientColor=#F78E04;gradientDirection=north;fillColor=#D05C17;strokeColor=#ffffff;dashed=0;verticalLabelPosition=bottom;verticalAlign=top;align=center;html=1;fontSize=12;fontStyle=0;aspect=fixed;shape=mxgraph.aws4.resourceIcon;resIcon=mxgraph.aws4.lambda;" parent="FeO4RGUYPiLeuhBBf7sC-20" vertex="1">
                    <mxGeometry x="630" y="110" width="78" height="78" as="geometry"/>
                </mxCell>
            </root>
        </mxGraphModel>
    </diagram>
</mxfile>